
mtllib texture_tng_corridor_angled_middle.txt

o corridor_cargo_btm

v 1.000000 0.000000 0.000000
v 0.675000 0.625000 0.000000
v 1.000000 0.000000 1.000000
v 0.675000 0.625000 1.000000
v 1.000000 0.000000 0.000000
v 1.000000 0.000000 1.000000
v 1.000000 0.000000 0.000000
v 0.450000 1.000000 0.000000
v 0.375000 0.625000 0.000000
v 1.000000 0.000000 1.000000
v 0.375000 0.625000 1.000000
v 0.450000 1.000000 1.000000

vt -0.000000 0.562500
vt -0.000000 0.000000
vt 1.000000 -0.000000
vt 1.000000 0.750000
vt 1.000000 1.000000
vt 0.000000 1.000000
vt 0.000000 0.750000
vt 1.000000 0.562500

vn 0.887200 0.461400 0.000000
vn 1.000000 0.000000 0.000000
vn 0.000000 1.000000 0.000000
vn 1.000000 0.000000 0.000000

usemtl tex_cargo_btm
s off
f 4/1/1 3/2/1 1/3/1
f 9/4/2 8/5/2 12/6/2
f 9/4/3 11/7/3 4/1/3
f 2/8/1 4/1/1 1/3/1
f 11/7/2 9/4/2 12/6/2
f 2/8/3 9/4/3 4/1/3
usemtl tex_cargo_btm
f 6/2/4 5/2/4 7/2/4
f 10/2/4 6/2/4 7/2/4
