
mtllib texture_tng_corridor_angled_middle.txt

o corridor_btm
v 1.000000 0.000000 0.000000
v 1.000000 0.000000 1.000000
v 1.000000 0.000000 0.000000
v 0.450000 1.000000 0.000000
v 0.375000 0.625000 0.000000
v 1.000000 0.000000 1.000000
v 0.375000 0.625000 1.000000
v 0.450000 1.000000 1.000000
vt 0.000000 0.687500
vt 0.000000 0.000000
vt 1.000000 0.000000
vt 1.000000 0.687500
vt 1.000000 1.000000
vt 0.000000 1.000000
vn 0.707100 0.707100 0.000000
vn 0.980600 -0.196100 0.000000
vn 1.000000 0.000000 0.000000
usemtl tex_btm
s off
f 7/1/1 6/2/1 3/3/1
f 5/4/2 4/5/2 8/6/2
f 5/4/1 7/1/1 3/3/1
f 7/1/2 5/4/2 8/6/2
usemtl tex_btm
f 2/2/3 1/2/3 3/2/3
f 6/2/3 2/2/3 3/2/3
