# Blender v2.76 (sub 0) OBJ File: 'trek_bridge_consoles.blend'
# www.blender.org
mtllib trek_bridge_consoles.mtl
o tng_bridge_console_middle_flush
v 1.000000 1.000000 0.020000
v 0.000000 1.000000 0.020000
v 0.000000 0.250000 0.020000
v 1.000000 0.250000 0.020000
v 0.000000 -0.000000 0.550000
v 1.000000 -0.000000 0.550000
vt 0.000000 1.000000
vt 0.000000 0.250130
vt 0.999913 0.250130
vt 0.999913 1.000000
vt 0.000000 0.410000
vt 0.999923 0.410000
vn 0.000000 -0.000000 1.000000
vn 0.000000 0.904400 0.426600
usemtl tex_trek_bridge_console_lcars_a_1
f 2/1/1 3/2/1 4/3/1
f 1/4/1 2/1/1 4/3/1
usemtl tex_trek_bridge_console_lcars_a_2
f 5/5/2 6/6/2 4/4/2
f 3/1/2 5/5/2 4/4/2
