# Blender v2.76 (sub 0) OBJ File: 'trek_bridge_consoles.blend'
mtllib trek_bridge_consoles.mtl
o tng_bridge_console_middle_right
v 1.000000 1.000000 0.120000
v 0.000000 1.000000 0.020000
v 0.000000 0.250000 0.020000
v 1.000000 0.250000 0.120000
v 0.000000 -0.000000 0.550000
v 1.000000 -0.000000 0.640000
vt 0.000086 1.000000
vt 0.000000 0.250000
vt 0.999913 0.250000
vt 0.999914 1.000000
vt 1.000000 1.000000
vt 0.000000 1.000000
vt 0.000000 0.410000
vt 0.999926 0.410000
vn -0.099500 -0.000000 0.995000
vn -0.042600 0.903600 0.426200
vn -0.039000 0.900600 0.433000
usemtl tex_trek_bridge_console_lcars_b_1
s off
f 2/1/1 3/2/1 4/3/1
f 1/4/1 2/1/1 4/3/1
usemtl tex_trek_bridge_console_lcars_b_2
f 4/5/2 3/6/2 5/7/2
f 6/8/3 4/5/3 5/7/3
