# Blender v2.76 (sub 0) OBJ File: 'trek_bridge_consoles.blend'
# www.blender.org
mtllib trek_bridge_consoles.mtl
o tng_bridge_console_middle_left_end
v 1.000000 1.000000 0.120000
v 0.000000 1.000000 0.370000
v 0.000000 0.250000 0.370000
v 1.000000 0.250000 0.120000
v 0.000000 -0.000000 0.900000
v 1.000000 -0.000000 0.640000
vt 0.000000 1.000000
vt 0.000000 0.250000
vt 0.999915 0.250000
vt 0.999915 1.000000
vt 0.000000 0.410000
vt 1.000000 0.410000
vt 1.000000 1.000000
vn 0.242500 -0.000000 0.970100
vn 0.110200 0.898900 0.424000
vn 0.107700 0.896000 0.430800
usemtl tex_trek_bridge_console_lcars_e_1
s off
f 2/1/1 3/2/1 4/3/1
f 1/4/1 2/1/1 4/3/1
usemtl tex_trek_bridge_console_lcars_e_2
f 3/1/2 5/5/2 6/6/2
f 4/7/3 3/1/3 6/6/3
