# Blender v2.76 (sub 0) OBJ File: 'trek_bridge_consoles.blend'
# www.blender.org
mtllib trek_bridge_consoles.mtl
o tng_bridge_console_top_flush
v 1.000000 0.800000 0.550000
v 0.000000 0.800000 0.550000
v 0.000000 0.300000 0.020000
v 1.000000 0.300000 0.020000
v 0.000000 -0.000000 0.020000
v 1.000000 -0.000000 0.020000
v 1.000000 1.000000 0.550000
v 0.000000 1.000000 0.550000
vt 0.999945 0.000000
vt 0.999945 0.300022
vt 0.000000 0.300022
vt 0.000000 0.000000
vt 0.000000 0.755000
vt 0.999904 0.755000
vt 0.999904 1.000000
vt 0.000000 1.000000
vn 0.000000 -0.000000 1.000000
vn 0.000000 -0.727400 0.686200
usemtl tex_trek_bridge_console_lcars_a_2
f 6/1/1 4/2/1 3/3/1
f 5/4/1 6/1/1 3/3/1
usemtl tex_trek_bridge_console_top
f 2/5/2 3/4/2 4/1/2
f 1/6/1 7/7/1 8/8/1
f 1/6/2 2/5/2 4/1/2
f 2/5/1 1/6/1 8/8/1
