# Blender v2.76 (sub 0) OBJ File: 'trek_bridge_consoles.blend'
# www.blender.org
mtllib trek_bridge_consoles.mtl
o tng_bridge_console_middle_left
v 1.000000 1.000000 0.020000
v 0.000000 1.000000 0.120000
v 0.000000 0.250000 0.120000
v 1.000000 0.250000 0.020000
v 0.000000 -0.000000 0.640000
v 1.000000 -0.000000 0.550000
vt 0.999914 0.999999
vt 0.000000 1.000000
vt 0.000000 0.250000
vt 0.999913 0.250000
vt 0.000000 0.410000
vt 1.000000 0.410000
vt 1.000000 1.000000
vn 0.099500 -0.000000 0.995000
vn 0.039000 0.900600 0.433000
vn 0.042600 0.903600 0.426200
usemtl tex_trek_bridge_console_lcars_d_1
s off
f 1/1/1 2/2/1 3/3/1
f 4/4/1 1/1/1 3/3/1
usemtl tex_trek_bridge_console_lcars_d_2
f 3/2/2 5/5/2 6/6/2
f 4/7/3 3/2/3 6/6/3
