# Blender v2.76 (sub 0) OBJ File: 'trek_bridge_consoles.blend'
# www.blender.org
mtllib tng_bridge_consoles.mtl
o tng_bridge_console_btm_flush
v 1.000000 -0.000000 0.300000
v 1.000000 0.150000 0.300000
v 0.000000 0.150000 0.300000
v 0.000000 -0.000000 0.300000
v 1.000000 1.000000 0.550000
v 0.000000 1.000000 0.550000
v 0.000000 0.150000 0.550000
v 1.000000 0.150000 0.550000
vt 0.000000 0.999905
vt 0.000000 0.188000
vt 1.000000 0.188000
vt 0.000000 0.000095
vt 1.000000 0.000000
vt 1.000000 0.999905
vt 0.188000 1.000000
vt 0.188000 0.000000
vt 0.335000 0.000000
vt 0.335000 1.000000
vn 0.000000 -0.000000 1.000000
vn 0.000000 -1.000000 -0.000000
usemtl tex_trek_bridge_console_btm
f 6/1/1 7/2/1 8/3/1
f 7/2/2 3/4/2 2/5/2
f 5/6/1 6/1/1 8/3/1
f 8/3/2 7/2/2 2/5/2
usemtl tex_trek_bridge_console_btm_misc
f 2/7/1 3/8/1 4/9/1
f 1/10/1 2/7/1 4/9/1
