# Blender v2.76 (sub 0) OBJ File: 'trek_bridge_consoles.blend'
# www.blender.org
mtllib tng_bridge_consoles.mtl
o tng_bridge_console_btm_left_end
v 1.000000 -0.000000 0.400000
v 1.000000 0.150000 0.400000
v 0.000000 0.150000 0.650000
v 0.000000 -0.000000 0.650000
v 1.000000 1.000000 0.640000
v 0.000000 1.000000 0.900000
v 0.000000 0.150000 0.900000
v 1.000000 0.150000 0.640000
vt 0.000000 1.000000
vt 0.000000 0.188000
vt 1.000000 0.188000
vt 0.000000 0.000000
vt 1.000000 1.000000
vt 0.999900 0.000000
vt 0.188000 1.000000
vt 0.188000 0.000000
vt 0.335000 0.000000
vt 0.335000 1.000000
vn 0.251600 -0.000000 0.967800
vn -0.000000 -1.000000 -0.000000
vn 0.242500 0.000000 0.970100
usemtl tex_trek_bridge_console_btm
s off
f 6/1/1 7/2/1 8/3/1
f 8/3/2 7/2/2 3/4/2
f 5/5/1 6/1/1 8/3/1
f 2/6/2 8/3/2 3/4/2
usemtl tex_trek_bridge_console_btm_misc
f 2/7/3 3/8/3 4/9/3
f 1/10/3 2/7/3 4/9/3
