# Blender v2.76 (sub 0) OBJ File: 'TMP Bridge Stations.blend'
# www.blender.org
mtllib tmp_bridge_stations.mtl
o console_btm_Cube
v 0.700000 0.000000 0.000000
v 0.700000 0.000000 1.000000
v 0.750000 0.200000 0.000000
v 0.750000 0.200000 1.000000
v 0.820000 0.770000 0.000000
v 0.330000 1.000000 0.000000
v 0.820000 0.770000 1.000000
v 0.330000 1.000000 1.000000
v 0.880000 0.580000 0.000000
v 0.880000 0.580000 1.000000
v 0.700000 0.200000 0.000000
v 0.700000 0.200000 1.000000
vt 0.999938 0.250000
vt 0.000062 0.250000
vt 0.000062 0.000161
vt 0.999938 0.000161
vt 0.999938 0.312500
vt 0.000062 0.312500
vt 0.999938 1.000000
vt 0.000062 0.999999
vt 0.000062 0.781249
vt 0.999938 0.781251
vt 1.000000 0.500000
vt 0.000000 0.500000
vt 0.000000 0.000000
vt 1.000000 0.000000
vn 1.000000 0.000000 0.000000
vn 0.581500 -0.813500 0.000000
vn 0.707100 -0.707100 0.000000
vn 0.752500 0.658600 0.000000
vn 0.999900 -0.011900 0.000000
vn 0.424900 0.905200 0.000000
usemtl tex_console_btm
f 11/1/1 12/2/1 2/3/1
f 1/4/1 11/1/1 2/3/1
f 3/5/2 4/6/2 12/2/3
f 5/7/4 7/8/4 10/9/5
f 3/5/2 9/10/5 10/9/5
f 11/1/3 3/5/2 12/2/3
f 9/10/5 5/7/4 10/9/5
f 4/6/2 3/5/2 10/9/5
usemtl tex_console_btm_screen_centre
f 6/11/6 8/12/6 7/13/6
f 5/14/6 6/11/6 7/13/6
