# Blender v2.76 (sub 0) OBJ File: 'TMP Bridge Stations.blend'
# www.blender.org
mtllib tmp_bridge_stations.mtl
o console_middle_right_Cube.007
v 0.500000 -0.000003 0.000000
v 0.000000 -0.000003 0.000000
v 0.500000 -0.000003 0.200004
v 0.300000 -0.000003 0.200004
v 0.300000 1.000000 0.200004
v 0.000000 1.000000 0.000000
v 0.810000 1.000000 0.200004
v 0.810000 1.000000 0.000000
v 0.330000 0.000000 0.100000
v 0.330000 0.000000 1.000000
v 0.680000 1.000000 0.100000
v 0.680000 1.000000 1.000000
vt 0.187500 1.000000
vt 0.000000 1.000000
vt 0.000000 0.000000
vt 0.187500 0.000000
vt 0.810000 1.000000
vt 0.500000 0.000000
vt 0.300000 1.000000
vt 0.300000 0.000000
vt 0.900000 1.000000
vt 0.900000 -0.000000
vn 0.955200 -0.296100 0.000000
vn 0.000000 0.000000 -1.000000
vn -0.000000 0.000000 1.000000
vn 0.943900 -0.330400 0.000000
usemtl tex_console_brace_middle
f 8/1/1 7/2/1 3/3/1
f 1/4/1 8/1/1 3/3/1
usemtl tex_console_brace_middle_end
f 6/2/2 8/5/2 1/6/2
f 3/6/3 7/5/3 5/7/3
f 2/3/2 6/2/2 1/6/2
f 4/8/3 3/6/3 5/7/3
usemtl tex_console_middle_screen_right
f 11/9/4 12/2/4 10/3/4
f 9/10/4 11/9/4 10/3/4
