# Blender v2.76 (sub 0) OBJ File: 'TMP Bridge Stations.blend'
# www.blender.org
mtllib tmp_bridge_stations.mtl
o console_top_right_Cube.008
v 1.000001 0.600000 0.200004
v 0.300000 0.600000 0.200004
v 1.000001 0.999997 0.200004
v 0.300000 0.999997 0.200004
v 1.000001 0.999997 0.000000
v 1.000001 0.600000 0.000000
v 0.000000 0.600000 0.000000
v 0.000000 0.999996 0.000000
v 0.000000 0.000000 0.000000
v 0.810000 0.000000 0.200004
v 0.810000 0.000000 0.000000
v 0.900000 1.000000 0.100000
v 0.900000 1.000000 1.000000
v 0.900000 0.640000 0.100000
v 0.900000 0.640000 1.000000
v 0.680000 -0.000000 0.100000
v 0.680000 -0.000000 1.000000
v 0.300000 0.000000 0.200004
vt 0.187500 1.000000
vt 0.000000 1.000000
vt 0.000000 0.674135
vt 0.187500 0.674135
vt 0.000000 0.000000
vt 0.187500 0.000000
vt 0.000000 0.600000
vt 1.000000 0.600000
vt 0.810000 0.000000
vt 1.000000 1.000000
vt 0.300000 1.000000
vt 0.300000 0.600000
vt 0.300000 0.000000
vt 0.900000 0.688000
vt 0.000000 0.688000
vt 0.900000 -0.000000
vt 0.900000 1.000000
vt 0.000000 0.625000
vt 0.900000 0.625000
vn 1.000000 0.000000 0.000000
vn 0.953300 -0.301900 0.000000
vn -0.000000 -0.000000 -1.000000
vn -0.000000 -0.000000 1.000000
vn 0.945700 -0.325100 0.000000
usemtl tex_console_brace_top
s off
f 5/1/1 3/2/1 1/3/1
f 6/4/2 1/3/2 10/5/2
f 6/4/1 5/1/1 1/3/1
f 11/6/2 6/4/2 10/5/2
usemtl tex_console_brace_top_end
f 7/7/3 6/8/3 11/9/3
f 1/8/4 3/10/4 4/11/4
f 8/2/3 5/10/3 6/8/3
f 2/12/4 18/13/4 10/9/4
f 9/5/3 7/7/3 11/9/3
f 2/12/4 1/8/4 4/11/4
f 7/7/3 8/2/3 6/8/3
f 1/8/4 2/12/4 10/9/4
usemtl tex_console_top_screen_right
f 14/14/5 15/15/5 17/5/5
f 16/16/5 14/14/5 17/5/5
usemtl tex_console_top_right
f 12/17/1 13/2/1 15/18/1
f 14/19/1 12/17/1 15/18/1
