# Blender v2.76 (sub 0) OBJ File: 'TMP Bridge Stations.blend'
# www.blender.org
mtllib tmp_bridge_stations.mtl
o console_btm_right_Cube.006
v 0.700000 0.000000 0.100000
v 0.700000 0.000000 1.000000
v 0.750000 0.200000 0.100000
v 0.750000 0.200000 1.000000
v 0.820000 0.770000 0.100000
v 0.330000 1.000000 0.100000
v 0.820000 0.770000 1.000000
v 0.330000 1.000000 1.000000
v 0.880000 0.580000 0.100000
v 0.880000 0.580000 1.000000
v 0.700000 0.200000 0.100000
v 0.700000 0.200000 1.000000
v 0.920000 0.800000 0.200004
v 1.000000 -0.000000 0.200000
v 0.999998 0.000000 0.000000
v 0.920000 0.800000 0.000000
v 0.300000 0.800000 0.200004
v 0.300000 -0.000000 0.200004
v 0.000000 0.000000 0.000000
v 0.000000 0.800000 0.000000
v 0.500000 0.999997 0.000000
v 0.000000 0.999997 0.000000
v 0.500000 0.999997 0.200004
v 0.300000 0.999997 0.200004
vt 0.900000 0.250000
vt 0.000000 0.250000
vt 0.000000 -0.000000
vt 0.900000 0.000000
vt 0.900000 0.313000
vt 0.000000 0.313000
vt 0.900000 1.000000
vt 0.000000 1.000000
vt 0.000000 0.781001
vt 0.900000 0.780999
vt 0.187500 0.700000
vt 0.000000 0.700000
vt 0.187500 0.000000
vt 0.187500 1.000000
vt 0.300000 0.000000
vt 1.000000 0.000000
vt 0.917969 0.796875
vt 0.300000 0.796875
vt 0.500000 1.000000
vt 0.000000 0.796875
vt 0.300000 1.000000
vt 0.900000 0.500000
vt 0.000074 0.500000
vt 0.000075 0.000074
vt 0.900000 0.000075
vn 1.000000 0.000000 0.000000
vn 0.581500 -0.813500 0.000000
vn 0.707100 -0.707100 0.000000
vn 0.752500 0.658600 0.000000
vn 0.999900 -0.011900 0.000000
vn 0.995000 0.099500 0.000000
vn 0.429900 0.902900 0.000000
vn 0.000000 -0.000000 1.000000
vn 0.000000 0.000000 -1.000000
vn 0.424900 0.905200 0.000000
usemtl tex_console_btm
f 11/1/1 12/2/1 2/3/1
f 1/4/1 11/1/1 2/3/1
f 3/5/2 4/6/2 12/2/3
f 5/7/4 7/8/4 10/9/5
f 9/10/5 10/9/5 4/6/2
f 11/1/3 3/5/2 12/2/3
f 9/10/5 5/7/4 10/9/5
f 3/5/2 9/10/5 4/6/2
usemtl tex_console_brace_btm
f 16/11/6 13/12/6 14/3/6
f 23/8/7 13/12/7 16/11/7
f 15/13/6 16/11/6 14/3/6
f 21/14/7 23/8/7 16/11/7
usemtl tex_console_brace_btm_end
f 18/15/8 14/16/8 13/17/8
f 16/17/9 15/16/9 19/3/9
f 17/18/8 13/17/8 23/19/8
f 21/19/9 16/17/9 20/20/9
f 17/18/8 18/15/8 13/17/8
f 20/20/9 16/17/9 19/3/9
f 24/21/8 17/18/8 23/19/8
f 22/8/9 21/19/9 20/20/9
usemtl tex_console_btm_screen_right
f 6/22/10 8/23/10 7/24/10
f 5/25/10 6/22/10 7/24/10
