# Blender v2.76 (sub 0) OBJ File: 'TMP Bridge Stations.blend'
# www.blender.org
mtllib tmp_bridge_stations.mtl
o console_middle_left_Cube.004
v 0.500000 -0.000003 1.000000
v 0.000000 -0.000003 1.000000
v 0.500000 -0.000003 0.799996
v 0.300000 -0.000003 0.799996
v 0.300000 1.000000 0.799997
v 0.000000 1.000000 1.000001
v 0.810000 1.000000 0.799997
v 0.810000 1.000000 1.000001
v 0.330000 0.000000 0.000000
v 0.330000 0.000000 0.900000
v 0.680000 1.000000 0.000000
v 0.680000 1.000000 0.900000
vt 0.999927 0.000000
vt 1.000000 1.000000
vt 0.100000 1.000000
vt 0.100000 0.000000
vt 0.000000 0.000000
vt 0.187500 0.000000
vt 0.187500 1.000000
vt 0.000000 1.000000
vt 0.500000 0.000000
vt 0.810000 1.000000
vt 0.300000 1.000000
vt 0.000064 0.000064
vt 0.300000 0.000000
vn 0.943900 -0.330400 0.000000
vn 0.955200 -0.296100 0.000000
vn 0.000000 -0.000000 1.000000
vn 0.000000 0.000000 -1.000000
usemtl tex_console_middle_screen_left
f 9/1/1 11/2/1 12/3/1
f 10/4/1 9/1/1 12/3/1
usemtl tex_console_brace_middle
f 1/5/2 3/6/2 7/7/2
f 8/8/2 1/5/2 7/7/2
usemtl tex_console_brace_middle_end
f 1/9/3 8/10/3 6/8/3
f 5/11/4 7/10/4 3/9/4
f 2/12/3 1/9/3 6/8/3
f 4/13/4 5/11/4 3/9/4
