# Blender v2.76 (sub 0) OBJ File: 'TMP Bridge Stations.blend'
# www.blender.org
mtllib tmp_bridge_stations.mtl
o console_top_left_Cube.003
v 1.000001 0.600000 0.799997
v 0.300000 0.599999 0.799997
v 1.000001 0.999997 0.799997
v 0.300000 0.999997 0.799997
v 1.000001 0.999997 1.000001
v 1.000001 0.599999 1.000001
v 0.000000 0.599999 1.000001
v 0.000000 0.999996 1.000001
v 0.300000 -0.000000 0.799997
v 0.000000 -0.000000 1.000001
v 0.810000 -0.000000 0.799997
v 0.810000 -0.000000 1.000001
v 0.900000 1.000000 0.000000
v 0.900000 1.000000 0.900000
v 0.900000 0.640000 0.000000
v 0.900000 0.640000 0.900000
v 0.680000 -0.000000 0.000000
v 0.680000 -0.000000 0.900000
vt 0.300000 0.600001
vt 1.000000 0.600002
vt 0.810000 0.000000
vt 0.000000 0.600002
vt 0.300000 0.999999
vt 1.000000 1.000000
vt 0.000000 0.999999
vt 0.300000 0.000000
vt 0.000000 0.000000
vt 0.000000 0.999930
vt 0.000000 0.674135
vt 0.187500 0.674135
vt 0.187500 0.000000
vt 0.187500 1.000000
vt 0.100000 1.000000
vt 0.100000 0.625000
vt 0.999963 0.625000
vt 0.999942 -0.000000
vt 0.999942 0.688008
vt 0.100000 0.688000
vt 0.100000 -0.000000
vn -0.000000 0.000000 -1.000000
vn 0.000000 -0.000000 1.000000
vn 1.000000 0.000000 0.000000
vn 0.953300 -0.301900 -0.000000
vn 0.945700 -0.325100 0.000000
usemtl tex_console_brace_top_end
f 2/1/1 1/2/1 11/3/1
f 12/3/2 6/2/2 7/4/2
f 4/5/1 3/6/1 1/2/1
f 8/7/2 7/4/2 6/2/2
f 9/8/1 2/1/1 11/3/1
f 10/9/2 12/3/2 7/4/2
f 2/1/1 4/5/1 1/2/1
f 5/6/2 8/7/2 6/2/2
usemtl tex_console_brace_top
f 5/10/3 6/11/3 1/12/3
f 11/13/4 1/12/4 6/11/4
f 3/14/3 5/10/3 1/12/3
f 12/9/4 11/13/4 6/11/4
usemtl tex_console_top_left
f 13/6/3 14/15/3 16/16/3
f 15/17/3 13/6/3 16/16/3
usemtl tex_console_top_screen_left
f 17/18/5 15/19/5 16/20/5
f 18/21/5 17/18/5 16/20/5
