# Blender v2.76 (sub 0) OBJ File: 'tng-warp-core-blocks.blend'
# www.blender.org
mtllib tng_core.txt



o WarpGroupC_meshC
v 1.000000 0.875000 0.210802
v 1.000000 0.937500 0.238286
v 0.963878 0.937500 0.191210
v 0.976707 0.875000 0.180446
v 1.000000 0.812500 0.238286
v 0.963878 0.812500 0.191210
v 0.889719 0.937500 0.110281
v 0.901561 0.875000 0.098439
v 1.000000 0.974978 0.299792
v 0.993222 0.983253 0.304538
v 0.928829 0.983253 0.220620
v 1.000000 0.775022 0.299792
v 0.928829 0.766747 0.220620
v 0.993222 0.766747 0.304538
v 0.889719 0.812500 0.110281
v 0.808789 0.937500 0.036122
v 0.819554 0.875000 0.023293
v 0.857367 0.983253 0.142633
v 0.942025 1.000000 0.340387
v 0.880951 1.000000 0.260794
v 1.000000 0.983253 0.315178
v 1.000000 0.766747 0.315178
v 0.942025 0.750000 0.340387
v 0.880951 0.750000 0.260794
v 0.857367 0.766747 0.142633
v 0.808789 0.812500 0.036122
v 0.761714 0.937500 0.000000
v 0.789198 0.875000 0.000000
v 0.779380 0.983253 0.071171
v 0.813173 1.000000 0.186827
v 1.000000 0.998740 0.422650
v 0.995929 1.000000 0.425000
v 1.000000 0.751260 0.422650
v 0.995929 0.750000 0.425000
v 0.993222 0.733253 0.304538
v 0.928829 0.733253 0.220620
v 0.813173 0.750000 0.186827
v 0.779380 0.766747 0.071171
v 0.761714 0.812500 0.000000
v 0.700207 0.974979 0.000000
v 0.695461 0.983253 0.006778
v 0.739206 1.000000 0.119049
v 1.000000 1.000000 0.432820
v 1.000000 0.750000 0.432820
v 1.000000 0.733253 0.315178
v 1.000000 0.748740 0.422650
v 1.000000 0.687500 0.238286
v 1.000000 0.724978 0.299792
v 0.963878 0.687500 0.191210
v 0.857367 0.733253 0.142633
v 0.739206 0.750000 0.119049
v 0.700207 0.775021 0.000000
v 0.695461 0.766747 0.006778
v 0.684822 0.983253 0.000000
v 0.659613 1.000000 0.057975
v 1.000000 0.625000 0.210802
v 0.976707 0.625000 0.180446
v 0.889719 0.687500 0.110281
v 0.779380 0.733253 0.071171
v 0.659613 0.750000 0.057975
v 0.684822 0.766747 0.000000
v 0.577350 0.998740 0.000000
v 0.575000 1.000000 0.004071
v 1.000000 0.562500 0.238286
v 0.963878 0.562500 0.191210
v 0.901561 0.625000 0.098439
v 0.808789 0.687500 0.036122
v 0.695461 0.733253 0.006778
v 0.577350 0.751260 0.000000
v 0.575000 0.750000 0.004071
v 0.567180 1.000000 0.000000
v 1.000000 0.525022 0.299792
v 0.928829 0.516747 0.220620
v 0.993222 0.516747 0.304538
v 0.889719 0.562500 0.110281
v 0.819554 0.625000 0.023293
v 0.700207 0.724979 0.000000
v 0.761714 0.687500 0.000000
v 0.577350 0.748740 0.000000
v 0.684822 0.733253 0.000000
v 0.567180 0.750000 0.000000
v 1.000000 0.516747 0.315178
v 0.942025 0.500000 0.340387
v 0.880951 0.500000 0.260794
v 0.857367 0.516747 0.142633
v 0.808789 0.562500 0.036122
v 0.789198 0.625000 0.000000
v 1.000000 0.501260 0.422650
v 0.995929 0.500000 0.425000
v 0.993222 0.483253 0.304538
v 0.928829 0.483253 0.220620
v 0.813173 0.500000 0.186827
v 0.779380 0.516747 0.071171
v 0.761714 0.562500 0.000000
v 1.000000 0.500000 0.432820
v 1.000000 0.483253 0.315178
v 1.000000 0.498740 0.422650
v 1.000000 0.437500 0.238286
v 1.000000 0.474978 0.299792
v 0.963878 0.437500 0.191210
v 0.857367 0.483253 0.142633
v 0.739206 0.500000 0.119049
v 0.700207 0.525021 0.000000
v 0.695461 0.516747 0.006778
v 1.000000 0.375000 0.210802
v 0.976707 0.375000 0.180446
v 0.889719 0.437500 0.110281
v 0.779380 0.483253 0.071171
v 0.659613 0.500000 0.057975
v 0.684822 0.516747 0.000000
v 1.000000 0.312500 0.238286
v 0.963878 0.312500 0.191210
v 0.901561 0.375000 0.098439
v 0.808789 0.437500 0.036122
v 0.695461 0.483253 0.006778
v 0.577350 0.501260 0.000000
v 0.575000 0.500000 0.004071
v 1.000000 0.275022 0.299792
v 0.928829 0.266747 0.220620
v 0.993222 0.266747 0.304538
v 0.889719 0.312500 0.110281
v 0.819554 0.375000 0.023293
v 0.700207 0.474979 0.000000
v 0.761714 0.437500 0.000000
v 0.577350 0.498740 0.000000
v 0.684822 0.483253 0.000000
v 0.567180 0.500000 0.000000
v 1.000000 0.266747 0.315178
v 0.942025 0.250000 0.340387
v 0.880951 0.250000 0.260794
v 0.857367 0.266747 0.142633
v 0.808789 0.312500 0.036122
v 0.789198 0.375000 0.000000
v 1.000000 0.251260 0.422650
v 0.995929 0.250000 0.425000
v 0.993222 0.233253 0.304538
v 0.928829 0.233253 0.220620
v 0.813173 0.250000 0.186827
v 0.779380 0.266747 0.071171
v 0.761714 0.312500 0.000000
v 1.000000 0.250000 0.432820
v 1.000000 0.233253 0.315178
v 1.000000 0.248740 0.422650
v 1.000000 0.187500 0.238286
v 1.000000 0.224978 0.299792
v 0.963878 0.187500 0.191210
v 0.857367 0.233253 0.142633
v 0.739206 0.250000 0.119049
v 0.700207 0.275021 0.000000
v 0.695461 0.266747 0.006778
v 1.000000 0.125000 0.210802
v 0.976707 0.125000 0.180446
v 0.889719 0.187500 0.110281
v 0.779380 0.233253 0.071171
v 0.659613 0.250000 0.057975
v 0.684822 0.266747 0.000000
v 1.000000 0.062500 0.238286
v 0.963878 0.062500 0.191210
v 0.901561 0.125000 0.098439
v 0.808789 0.187500 0.036122
v 0.695461 0.233253 0.006778
v 0.577350 0.251260 0.000000
v 0.575000 0.250000 0.004071
v 1.000000 0.025022 0.299792
v 0.928829 0.016747 0.220620
v 0.993222 0.016747 0.304538
v 0.889719 0.062500 0.110281
v 0.819554 0.125000 0.023293
v 0.700207 0.224979 0.000000
v 0.761714 0.187500 0.000000
v 0.577350 0.248740 0.000000
v 0.684822 0.233253 0.000000
v 0.567180 0.250000 0.000000
v 1.000000 0.016747 0.315178
v 0.942025 0.000000 0.340387
v 0.880951 0.000000 0.260794
v 0.857367 0.016747 0.142633
v 0.808789 0.062500 0.036122
v 0.789198 0.125000 0.000000
v 1.000000 0.001260 0.422650
v 0.995929 0.000000 0.425000
v 0.813173 0.000000 0.186827
v 0.779380 0.016747 0.071171
v 0.761714 0.062500 0.000000
v 1.000000 0.000000 0.432820
v 0.739206 0.000000 0.119049
v 0.700207 0.025021 0.000000
v 0.695461 0.016747 0.006778
v 0.659613 0.000000 0.057975
v 0.684822 0.016747 0.000000
v 0.577350 0.001260 0.000000
v 0.575000 0.000000 0.004071
v 0.567180 0.000000 0.000000
vt 0.425781 0.875000
vt 0.445312 0.875000
vt 0.445312 0.917969
vt 0.445312 0.832031
vt 0.500000 0.875000
vt 0.500000 0.917969
vt 0.445312 0.957031
vt 0.388672 0.957031
vt 0.388672 0.949219
vt 0.445312 0.792969
vt 0.414062 0.832031
vt 0.500000 0.832031
vt 0.053711 0.875000
vt 0.053711 0.917969
vt 0.000000 0.917969
vt 0.500000 0.957031
vt 0.445312 1.000000
vt 0.388672 1.000000
vt 0.382812 0.957031
vt 0.382812 0.792969
vt 0.388672 0.792969
vt 0.388672 0.800781
vt 0.388672 0.750000
vt 0.445312 0.750000
vt 0.500000 0.792969
vt 0.000000 0.832031
vt 0.053711 0.832031
vt 0.073047 0.875000
vt 0.053711 0.960938
vt 0.000000 0.960938
vt 0.500000 1.000000
vt 0.333984 1.000000
vt 0.333984 0.996094
vt 0.445312 0.707031
vt 0.500000 0.750000
vt 0.000000 0.792969
vt 0.053711 0.792969
vt 0.085938 0.917969
vt 0.053711 1.000000
vt 0.000000 1.000000
vt 0.328125 1.000000
vt 0.328125 0.750000
vt 0.333984 0.750000
vt 0.333984 0.753906
vt 0.333984 0.746094
vt 0.388672 0.707031
vt 0.388672 0.699219
vt 0.500000 0.707031
vt 0.053711 0.750000
vt 0.109570 0.792969
vt 0.109570 0.800781
vt 0.382812 0.960938
vt 0.388672 0.960938
vt 0.388672 0.953125
vt 0.109570 0.960938
vt 0.109570 1.000000
vt 0.382812 0.707031
vt 0.425781 0.625000
vt 0.445312 0.625000
vt 0.445312 0.667969
vt 0.500000 0.667969
vt 0.000000 0.710938
vt 0.053711 0.710938
vt 0.109570 0.750000
vt 0.116016 0.960938
vt 0.445312 0.585938
vt 0.500000 0.625000
vt 0.053711 0.667969
vt 0.109570 0.710938
vt 0.165430 0.750000
vt 0.165430 0.753906
vt 0.445312 0.542969
vt 0.414062 0.585938
vt 0.500000 0.585938
vt 0.053711 0.625000
vt 0.000000 0.667969
vt 0.085938 0.667969
vt 0.116016 0.710938
vt 0.382812 0.542969
vt 0.388672 0.542969
vt 0.388672 0.550781
vt 0.388672 0.500000
vt 0.445312 0.500000
vt 0.500000 0.542969
vt 0.000000 0.585938
vt 0.053711 0.585938
vt 0.073047 0.625000
vt 0.382812 0.710938
vt 0.388672 0.710938
vt 0.388672 0.703125
vt 0.445312 0.457031
vt 0.500000 0.500000
vt 0.053711 0.542969
vt 0.328125 0.500000
vt 0.333984 0.500000
vt 0.333984 0.503906
vt 0.333984 0.496094
vt 0.388672 0.457031
vt 0.388672 0.449219
vt 0.500000 0.457031
vt 0.053711 0.500000
vt 0.000000 0.542969
vt 0.109570 0.542969
vt 0.109570 0.550781
vt 0.382812 0.457031
vt 0.425781 0.375000
vt 0.445312 0.375000
vt 0.445312 0.417969
vt 0.500000 0.417969
vt 0.000000 0.457031
vt 0.053711 0.457031
vt 0.109570 0.500000
vt 0.445312 0.335938
vt 0.500000 0.375000
vt 0.053711 0.417969
vt 0.109570 0.457031
vt 0.165430 0.500000
vt 0.165430 0.503906
vt 0.445312 0.292969
vt 0.414062 0.335938
vt 0.500000 0.335938
vt 0.053711 0.375000
vt 0.000000 0.417969
vt 0.085938 0.417969
vt 0.116016 0.457031
vt 0.382812 0.292969
vt 0.388672 0.292969
vt 0.388672 0.300781
vt 0.445312 0.250000
vt 0.500000 0.292969
vt 0.000000 0.335938
vt 0.053711 0.335938
vt 0.073047 0.375000
vt 0.388672 0.250000
vt 0.445312 0.210938
vt 0.500000 0.250000
vt 0.053711 0.292969
vt 0.328125 0.250000
vt 0.333984 0.250000
vt 0.333984 0.253906
vt 0.333984 0.246094
vt 0.388672 0.210938
vt 0.388672 0.203125
vt 0.500000 0.210938
vt 0.053711 0.250000
vt 0.000000 0.292969
vt 0.109570 0.292969
vt 0.109570 0.300781
vt 0.382812 0.210938
vt 0.425781 0.125000
vt 0.445312 0.125000
vt 0.445312 0.167969
vt 0.500000 0.167969
vt 0.000000 0.207031
vt 0.053711 0.207031
vt 0.109570 0.250000
vt 0.445312 0.082031
vt 0.500000 0.125000
vt 0.053711 0.167969
vt 0.109570 0.207031
vt 0.165430 0.250000
vt 0.165430 0.253906
vt 0.445312 0.042969
vt 0.414062 0.082031
vt 0.500000 0.082031
vt 0.053711 0.125000
vt 0.000000 0.167969
vt 0.085938 0.167969
vt 0.116016 0.207031
vt 0.382812 0.042969
vt 0.388672 0.042969
vt 0.388672 0.050781
vt 0.388672 0.000000
vt 0.445312 0.000000
vt 0.500000 0.042969
vt 0.000000 0.082031
vt 0.053711 0.082031
vt 0.073047 0.125000
vt 0.382812 0.207031
vt 0.388672 0.207031
vt 0.388672 0.199219
vt 0.500000 0.000000
vt 0.053711 0.042969
vt 0.328125 0.000000
vt 0.333984 0.000000
vt 0.333984 0.003906
vt 0.053711 0.000000
vt 0.000000 0.042969
vt 0.109570 0.042969
vt 0.109570 0.050781
vt 0.109570 0.000000
vt 0.165430 0.000000
vt 0.165430 0.003906
vt 0.414062 0.917969
vt 0.000000 0.875000
vt 0.085938 0.832031
vt 0.109570 0.953125
vt 0.414062 0.667969
vt 0.000000 0.750000
vt 0.165430 0.996094
vt 0.165430 1.000000
vt 0.116016 0.792969
vt 0.000000 0.625000
vt 0.109570 0.703125
vt 0.165430 0.746094
vt 0.085938 0.585938
vt 0.414062 0.417969
vt 0.000000 0.500000
vt 0.116016 0.542969
vt 0.000000 0.375000
vt 0.109570 0.449219
vt 0.165430 0.496094
vt 0.085938 0.335938
vt 0.414062 0.167969
vt 0.000000 0.250000
vt 0.116016 0.292969
vt 0.000000 0.125000
vt 0.109570 0.199219
vt 0.165430 0.246094
vt 0.085938 0.082031
vt 0.000000 0.000000
vt 0.116016 0.042969
vn 0.793300 0.000000 -0.608800
vn 0.766000 0.000000 -0.642800
vn 0.664800 0.496900 -0.557800
vn 0.664800 -0.496900 -0.557800
vn 0.707100 0.000000 -0.707100
vn 0.613600 0.496900 -0.613600
vn 0.387100 0.862900 -0.324800
vn 0.414000 0.862900 -0.289800
vn 0.570500 0.707000 -0.418000
vn 0.387100 -0.862900 -0.324800
vn 0.653200 -0.567500 -0.501200
vn 0.613600 -0.496900 -0.613600
vn 0.642800 0.000000 -0.766000
vn 0.557800 0.496900 -0.664800
vn 0.357300 0.862900 -0.357300
vn 0.198200 0.965900 -0.166400
vn 0.212000 0.965900 -0.148400
vn 0.310000 0.930000 -0.197500
vn 0.310000 -0.930000 -0.197500
vn 0.414000 -0.862900 -0.289800
vn 0.570500 -0.707000 -0.418000
vn 0.819100 0.000000 -0.573600
vn 0.357300 -0.862900 -0.357300
vn 0.557800 -0.496900 -0.664800
vn 0.608800 0.000000 -0.793300
vn 0.324800 0.862900 -0.387100
vn 0.183000 0.965900 -0.183000
vn 0.224100 0.965900 -0.129400
vn 0.222200 0.965900 -0.132800
vn 0.324800 -0.862900 -0.387100
vn 0.501200 0.567500 -0.653200
vn 0.166400 0.965900 -0.198200
vn 0.229800 0.965800 -0.119600
vn 0.887000 0.000000 -0.461700
vn 0.866000 0.000000 -0.500000
vn 0.222200 -0.965900 -0.132800
vn 0.289800 -0.862900 -0.414000
vn 0.418000 -0.707000 -0.570500
vn 0.197500 0.930000 -0.310000
vn 0.289800 0.862900 -0.414000
vn 0.418000 0.707000 -0.570500
vn 0.148400 0.965900 -0.212000
vn 0.573600 0.000000 -0.819100
vn 0.197500 -0.930000 -0.310000
vn 0.500000 0.000000 -0.866000
vn 0.132800 -0.965900 -0.222200
vn 0.119600 0.965800 -0.229800
vn 0.129400 0.965900 -0.224100
vn 0.132800 0.965900 -0.222200
vn 0.461700 0.000000 -0.887000
vn 0.212000 -0.965900 -0.148400
vn 0.198200 -0.965900 -0.166400
vn 0.183000 -0.965900 -0.183000
vn 0.229800 -0.965800 -0.119600
vn 0.224100 -0.965900 -0.129400
vn 0.166400 -0.965900 -0.198200
vn 0.148400 -0.965900 -0.212000
vn 0.129400 -0.965900 -0.224100
vn 0.119600 -0.965800 -0.229800
vn 0.653200 0.567500 -0.501200
vn 0.501200 -0.567500 -0.653200
usemtl _tex
s 1
f 1/1/1 4/2/2 3/3/3
f 6/4/4 4/2/2 1/1/1
f 8/5/5 7/6/6 3/3/3
f 11/7/7 10/8/8 9/9/9
f 13/10/10 6/4/4 5/11/11
f 15/12/12 8/5/5 4/2/2
f 17/13/13 16/14/14 7/15/6
f 3/3/3 7/6/6 18/16/15
f 11/7/7 20/17/16 19/18/17
f 9/9/9 10/8/8 21/19/18
f 22/20/19 14/21/20 12/22/21
f 23/23/22 24/24/2 13/10/10
f 25/25/23 15/12/12 6/4/4
f 15/26/12 26/27/24 17/13/13
f 16/14/14 17/13/13 28/28/25
f 16/14/14 29/29/26 18/30/15
f 18/16/15 30/31/27 20/17/16
f 19/18/17 32/32/28 31/33/29
f 23/23/22 14/21/20 22/20/19
f 36/34/7 24/24/2 23/23/22
f 24/24/2 37/35/5 25/25/23
f 25/36/23 38/37/30 26/27/24
f 28/28/25 17/13/13 26/27/24
f 29/29/26 16/14/14 27/38/31
f 29/29/26 42/39/32 30/40/27
f 31/33/29 32/32/28 43/41/33
f 44/42/34 34/43/35 33/44/36
f 23/23/22 34/43/35 46/45/29
f 36/34/7 35/46/8 48/47/9
f 50/48/15 37/35/5 24/24/2
f 51/49/13 38/37/30 25/36/23
f 38/37/30 53/50/37 52/51/38
f 54/52/39 41/53/40 40/54/41
f 29/29/26 41/55/40 55/56/42
f 46/45/29 34/43/35 44/42/34
f 48/47/9 35/46/8 45/57/18
f 56/58/1 57/59/2 49/60/3
f 49/60/3 58/61/6 50/48/15
f 50/62/15 59/63/26 51/49/13
f 60/64/43 53/50/37 38/37/30
f 52/22/38 53/21/37 61/20/44
f 55/56/42 41/55/40 54/65/39
f 65/66/4 57/59/2 56/58/1
f 66/67/5 58/61/6 49/60/3
f 67/68/14 59/63/26 50/62/15
f 59/63/26 68/69/40 60/64/43
f 60/64/43 70/70/45 69/71/46
f 71/41/47 63/32/48 62/33/49
f 73/72/10 65/66/4 64/73/11
f 65/66/4 75/74/12 66/67/5
f 76/75/13 67/68/14 58/76/6
f 59/63/26 67/68/14 78/77/31
f 60/64/43 68/69/40 80/78/39
f 69/44/46 70/43/45 81/42/50
f 82/79/19 74/80/20 72/81/21
f 83/82/22 84/83/2 73/72/10
f 85/84/23 75/74/12 65/66/4
f 75/85/12 86/86/24 76/75/13
f 67/68/14 76/75/13 87/87/25
f 80/88/39 68/89/40 77/90/41
f 81/42/50 70/43/45 79/45/49
f 83/82/22 74/80/20 82/79/19
f 91/91/7 84/83/2 83/82/22
f 84/83/2 92/92/5 85/84/23
f 93/93/30 86/86/24 75/85/12
f 87/87/25 76/75/13 86/86/24
f 95/94/34 89/95/35 88/96/36
f 83/82/22 89/95/35 97/97/29
f 91/91/7 90/98/8 99/99/9
f 101/100/15 92/92/5 84/83/2
f 102/101/13 93/93/30 85/102/23
f 93/93/30 104/103/37 103/104/38
f 97/97/29 89/95/35 95/94/34
f 99/99/9 90/98/8 96/105/18
f 105/106/1 106/107/2 100/108/3
f 100/108/3 107/109/6 101/100/15
f 101/110/15 108/111/26 102/101/13
f 109/112/43 104/103/37 93/93/30
f 103/81/38 104/80/37 110/79/44
f 112/113/4 106/107/2 105/106/1
f 113/114/5 107/109/6 100/108/3
f 114/115/14 108/111/26 101/110/15
f 108/111/26 115/116/40 109/112/43
f 109/112/43 117/117/45 116/118/46
f 119/119/10 112/113/4 111/120/11
f 121/121/12 113/114/5 106/107/2
f 122/122/13 114/115/14 107/123/6
f 108/111/26 114/115/14 124/124/31
f 109/112/43 115/116/40 126/125/39
f 116/96/46 117/95/45 127/94/50
f 128/126/19 120/127/20 118/128/21
f 130/129/2 119/119/10 120/127/20
f 131/130/23 121/121/12 112/113/4
f 121/131/12 132/132/24 122/122/13
f 114/115/14 122/122/13 133/133/25
f 126/105/39 115/98/40 123/99/41
f 127/94/50 117/95/45 125/97/49
f 129/134/22 120/127/20 128/126/19
f 137/135/7 130/129/2 129/134/22
f 130/129/2 138/136/5 131/130/23
f 139/137/30 132/132/24 121/131/12
f 133/133/25 122/122/13 132/132/24
f 141/138/34 135/139/35 134/140/36
f 129/134/22 135/139/35 143/141/29
f 137/135/7 136/142/8 145/143/9
f 147/144/15 138/136/5 130/129/2
f 148/145/13 139/137/30 131/146/23
f 139/137/30 150/147/37 149/148/38
f 143/141/29 135/139/35 141/138/34
f 145/143/9 136/142/8 142/149/18
f 151/150/1 152/151/2 146/152/3
f 146/152/3 153/153/6 147/144/15
f 147/154/15 154/155/26 148/145/13
f 155/156/43 150/147/37 139/137/30
f 149/128/38 150/127/37 156/126/44
f 158/157/4 152/151/2 151/150/1
f 159/158/5 153/153/6 146/152/3
f 160/159/14 154/155/26 147/154/15
f 154/155/26 161/160/40 155/156/43
f 155/156/43 163/161/45 162/162/46
f 165/163/10 158/157/4 157/164/11
f 167/165/12 159/158/5 152/151/2
f 168/166/13 160/159/14 153/167/6
f 154/155/26 160/159/14 170/168/31
f 155/156/43 161/160/40 172/169/39
f 162/140/46 163/139/45 173/138/50
f 174/170/19 166/171/20 164/172/21
f 175/173/51 176/174/52 165/163/10
f 177/175/23 167/165/12 158/157/4
f 167/176/12 178/177/24 168/166/13
f 160/159/14 168/166/13 179/178/25
f 172/179/39 161/180/40 169/181/41
f 173/138/50 163/139/45 171/141/49
f 175/173/51 166/171/20 174/170/19
f 176/174/52 182/182/53 177/175/23
f 183/183/30 178/177/24 167/176/12
f 179/178/25 168/166/13 178/177/24
f 185/184/54 181/185/55 180/186/36
f 186/187/56 183/183/30 177/188/23
f 183/183/30 188/189/37 187/190/38
f 189/191/57 188/189/37 183/183/30
f 187/172/38 188/171/37 190/170/44
f 189/191/57 192/192/58 191/193/46
f 191/186/46 192/185/58 193/184/59
f 2/194/60 1/1/1 3/3/3
f 5/11/11 6/4/4 1/1/1
f 4/2/2 8/5/5 3/3/3
f 9/9/9 2/194/60 11/7/7
f 3/3/3 11/7/7 2/194/60
f 5/11/11 12/22/21 13/10/10
f 14/21/20 13/10/10 12/22/21
f 6/4/4 15/12/12 4/2/2
f 8/195/5 17/13/13 7/15/6
f 11/7/7 3/3/3 18/16/15
f 10/8/8 11/7/7 19/18/17
f 14/21/20 23/23/22 13/10/10
f 13/10/10 25/25/23 6/4/4
f 8/195/5 15/26/12 17/13/13
f 27/38/31 16/14/14 28/28/25
f 7/15/6 16/14/14 18/30/15
f 11/7/7 18/16/15 20/17/16
f 31/33/29 21/19/18 19/18/17
f 10/8/8 19/18/17 21/19/18
f 22/20/19 33/44/36 23/23/22
f 34/43/35 23/23/22 33/44/36
f 35/46/8 36/34/7 23/23/22
f 13/10/10 24/24/2 25/25/23
f 15/26/12 25/36/23 26/27/24
f 39/196/61 28/28/25 26/27/24
f 27/38/31 40/197/41 29/29/26
f 41/55/40 29/29/26 40/197/41
f 18/30/15 29/29/26 30/40/27
f 46/45/29 45/57/18 23/23/22
f 35/46/8 23/23/22 45/57/18
f 48/47/9 47/198/60 36/34/7
f 49/60/3 36/34/7 47/198/60
f 36/34/7 50/48/15 24/24/2
f 37/199/5 51/49/13 25/36/23
f 52/51/38 39/196/61 38/37/30
f 26/27/24 38/37/30 39/196/61
f 42/39/32 29/29/26 55/56/42
f 47/198/60 56/58/1 49/60/3
f 36/34/7 49/60/3 50/48/15
f 37/199/5 50/62/15 51/49/13
f 51/49/13 60/64/43 38/37/30
f 54/65/39 62/200/49 55/56/42
f 63/201/48 55/56/42 62/200/49
f 64/73/11 65/66/4 56/58/1
f 57/59/2 66/67/5 49/60/3
f 58/76/6 67/68/14 50/62/15
f 51/49/13 59/63/26 60/64/43
f 69/71/46 61/202/44 60/64/43
f 53/50/37 60/64/43 61/202/44
f 64/73/11 72/81/21 73/72/10
f 74/80/20 73/72/10 72/81/21
f 57/59/2 65/66/4 66/67/5
f 66/203/5 76/75/13 58/76/6
f 78/77/31 77/204/41 59/63/26
f 68/69/40 59/63/26 77/204/41
f 80/78/39 79/205/49 60/64/43
f 70/70/45 60/64/43 79/205/49
f 74/80/20 83/82/22 73/72/10
f 73/72/10 85/84/23 65/66/4
f 66/203/5 75/85/12 76/75/13
f 78/77/31 67/68/14 87/87/25
f 82/79/19 88/96/36 83/82/22
f 89/95/35 83/82/22 88/96/36
f 90/98/8 91/91/7 83/82/22
f 73/72/10 84/83/2 85/84/23
f 85/102/23 93/93/30 75/85/12
f 94/206/61 87/87/25 86/86/24
f 97/97/29 96/105/18 83/82/22
f 90/98/8 83/82/22 96/105/18
f 99/99/9 98/207/60 91/91/7
f 100/108/3 91/91/7 98/207/60
f 91/91/7 101/100/15 84/83/2
f 92/208/5 102/101/13 85/102/23
f 103/104/38 94/206/61 93/93/30
f 86/86/24 93/93/30 94/206/61
f 98/207/60 105/106/1 100/108/3
f 91/91/7 100/108/3 101/100/15
f 92/208/5 101/110/15 102/101/13
f 102/101/13 109/112/43 93/93/30
f 111/120/11 112/113/4 105/106/1
f 106/107/2 113/114/5 100/108/3
f 107/123/6 114/115/14 101/110/15
f 102/101/13 108/111/26 109/112/43
f 116/118/46 110/209/44 109/112/43
f 104/103/37 109/112/43 110/209/44
f 111/120/11 118/128/21 119/119/10
f 120/127/20 119/119/10 118/128/21
f 112/113/4 121/121/12 106/107/2
f 113/210/5 122/122/13 107/123/6
f 124/124/31 123/211/41 108/111/26
f 115/116/40 108/111/26 123/211/41
f 126/125/39 125/212/49 109/112/43
f 117/117/45 109/112/43 125/212/49
f 129/134/22 130/129/2 120/127/20
f 119/119/10 131/130/23 112/113/4
f 113/210/5 121/131/12 122/122/13
f 124/124/31 114/115/14 133/133/25
f 128/126/19 134/140/36 129/134/22
f 135/139/35 129/134/22 134/140/36
f 136/142/8 137/135/7 129/134/22
f 119/119/10 130/129/2 131/130/23
f 131/146/23 139/137/30 121/131/12
f 140/213/61 133/133/25 132/132/24
f 143/141/29 142/149/18 129/134/22
f 136/142/8 129/134/22 142/149/18
f 145/143/9 144/214/60 137/135/7
f 146/152/3 137/135/7 144/214/60
f 137/135/7 147/144/15 130/129/2
f 138/215/5 148/145/13 131/146/23
f 149/148/38 140/213/61 139/137/30
f 132/132/24 139/137/30 140/213/61
f 144/214/60 151/150/1 146/152/3
f 137/135/7 146/152/3 147/144/15
f 138/215/5 147/154/15 148/145/13
f 148/145/13 155/156/43 139/137/30
f 157/164/11 158/157/4 151/150/1
f 152/151/2 159/158/5 146/152/3
f 153/167/6 160/159/14 147/154/15
f 148/145/13 154/155/26 155/156/43
f 162/162/46 156/216/44 155/156/43
f 150/147/37 155/156/43 156/216/44
f 157/164/11 164/172/21 165/163/10
f 166/171/20 165/163/10 164/172/21
f 158/157/4 167/165/12 152/151/2
f 159/217/5 168/166/13 153/167/6
f 170/168/31 169/218/41 154/155/26
f 161/160/40 154/155/26 169/218/41
f 172/169/39 171/219/49 155/156/43
f 163/161/45 155/156/43 171/219/49
f 166/171/20 175/173/51 165/163/10
f 165/163/10 177/175/23 158/157/4
f 159/217/5 167/176/12 168/166/13
f 170/168/31 160/159/14 179/178/25
f 174/170/19 180/186/36 175/173/51
f 181/185/55 175/173/51 180/186/36
f 165/163/10 176/174/52 177/175/23
f 177/188/23 183/183/30 167/176/12
f 184/220/61 179/178/25 178/177/24
f 182/221/53 186/187/56 177/188/23
f 187/190/38 184/220/61 183/183/30
f 178/177/24 183/183/30 184/220/61
f 186/187/56 189/191/57 183/183/30
f 191/193/46 190/222/44 189/191/57
f 188/189/37 189/191/57 190/222/44
