# Blender v2.76 (sub 0) OBJ File: 'sovereign_corridor_v2.blend'
# www.blender.org

mtllib sovereign_corridor.mtl

o corridor_diag_b_btm_Box001.012

v 0.025000 -0.000000 0.025000
v 0.025000 0.200000 0.025000
v 0.130000 0.850000 0.130000
v 0.025000 1.000000 0.025000
v 0.000000 -0.000000 0.050000
v 0.000000 0.200000 0.050000
v 0.000000 0.850000 0.260000
v 0.000000 1.000000 0.050000
v 0.050000 0.200000 0.000000
v 0.050000 -0.000000 0.000000
v 0.050000 1.000000 0.000000
v 0.260000 0.850000 0.000000

vt 0.025742 1.000000
vt 0.000000 1.000000
vt 0.000000 0.812500
vt 0.000000 0.187500
vt 0.025742 0.187500
vt 0.000000 0.000000
vt 0.025742 0.000000
vt 0.974275 1.000000
vt 0.866601 0.812500
vt 1.000000 0.812500
vt 0.974275 0.187500
vt 0.974275 0.000000
vt 1.000000 0.000000
vt 0.133398 0.812500
vt 1.000000 1.000000
vt 1.000000 0.187500

vn 0.502500 0.703500 0.502500
vn 0.689300 -0.222700 0.689300
vn 0.707100 0.000000 0.707100

usemtl tex_corridor_diag_btm_flush
f 11/1/1 4/2/1 3/3/1
f 3/3/2 2/4/2 9/5/2
f 2/4/3 1/6/3 10/7/3
f 8/8/1 7/9/1 3/10/1
f 3/10/2 7/9/2 6/11/2
f 6/11/3 5/12/3 1/13/3
f 12/14/1 11/1/1 3/3/1
f 12/14/2 3/3/2 9/5/2
f 9/5/3 2/4/3 10/7/3
f 4/15/1 8/8/1 3/10/1
f 2/16/2 3/10/2 6/11/2
f 2/16/3 6/11/3 1/13/3
