# Blender v2.76 (sub 0) OBJ File: 'sovereign_corridor_v2.blend'
# www.blender.org

mtllib sovereign_corridor.mtl

o corridor_top_right_Box001.008

v 0.250000 0.000000 0.050000
v 0.250000 0.000000 1.000000
v 0.350000 0.450000 0.050000
v 0.350000 0.450000 1.000000
v 0.450000 0.500000 0.050000
v 0.450000 0.500000 1.000000
v 0.550000 0.900000 0.050000
v 0.550000 0.900000 1.000000
v 0.550000 1.000000 0.050000
v 0.550000 1.000000 1.000000
v 0.440000 0.000000 0.100000
v 0.440000 0.000000 -0.000000
v 0.500000 0.250000 0.100000
v 0.500000 0.250000 -0.000000
v 0.570000 0.500000 0.100000
v 0.570000 0.500000 -0.000000
v 0.750000 0.900000 0.100000
v 0.750000 0.900000 -0.000000
v 0.750000 1.000000 0.100000
v 0.750000 1.000000 -0.000000
v 0.000000 0.900000 0.000000
v 0.000000 1.000000 0.000000
v 0.000000 0.500000 0.000000
v 0.000000 0.250000 0.000000
v 0.000000 0.000000 0.000000
v 0.030000 1.000000 0.100000
v 0.030000 0.900000 0.100000
v 0.020000 0.500000 0.100000
v 0.020000 0.250000 0.100000
v 0.020000 0.000000 0.100000

vt 0.950000 -0.000000
vt 0.950000 0.406250
vt -0.000000 0.406250
vt 0.950000 0.500000
vt -0.000000 0.500000
vt 0.950000 0.906250
vt 0.000000 0.906250
vt 0.000000 1.000000
vt -0.000000 0.000000
vt 0.950000 1.000000
vt 0.101562 0.000000
vt 0.000000 0.250000
vt 0.101562 0.250000
vt 0.101562 0.906250
vt 0.101562 0.500000
vt 0.000000 0.906250
vt 0.820312 1.000000
vt 0.820312 0.906250
vt 0.640625 0.500000
vt 0.570312 0.250000
vt 0.101562 1.000000
vt 0.523438 0.000000
vt 0.750066 0.899600
vt 0.000000 0.899859
vt 0.000000 0.999827
vt 0.569987 0.499792
vt 0.499923 0.249898
vt 0.000000 0.250070
vt 0.439857 0.000000
vt 0.750101 0.999567

vn 0.976200 -0.216900 0.000000
vn 0.447200 -0.894400 0.000000
vn 0.970100 -0.242500 -0.000000
vn 1.000000 0.000000 -0.000000
vn 0.972400 -0.233400 0.000000
vn 0.963000 -0.269600 0.000000
vn 0.911900 -0.410400 0.000000
vn 0.000000 0.000000 1.000000
vn -0.000000 0.000000 -1.000000

usemtl tex_corridor_top_right
f 1/1/1 3/2/1 4/3/1
f 3/2/2 5/4/2 6/5/2
f 7/6/3 8/7/3 6/5/3
f 10/8/4 8/7/4 7/6/4
f 2/9/1 1/1/1 4/3/1
f 4/3/2 3/2/2 6/5/2
f 5/4/3 7/6/3 6/5/3
f 9/10/4 10/8/4 7/6/4

usemtl tex_corridor_brace_top
f 11/11/5 12/9/5 14/12/5
f 13/13/6 14/12/6 16/5/6
f 17/14/7 15/15/7 16/5/7
f 17/14/4 18/16/4 20/8/4
f 26/17/8 27/18/8 17/14/8
f 15/15/8 17/14/8 27/18/8
f 13/13/8 15/15/8 28/19/8
f 11/11/8 13/13/8 29/20/8
f 13/13/5 11/11/5 14/12/5
f 15/15/6 13/13/6 16/5/6
f 18/16/7 17/14/7 16/5/7
f 19/21/4 17/14/4 20/8/4
f 19/21/8 26/17/8 17/14/8
f 28/19/8 15/15/8 27/18/8
f 29/20/8 13/13/8 28/19/8
f 30/22/8 11/11/8 29/20/8

usemtl tex_corridor_brace_end_top
f 18/23/9 21/24/9 22/25/9
f 16/26/9 23/5/9 21/24/9
f 14/27/9 24/28/9 23/5/9
f 12/29/9 25/9/9 24/28/9
f 20/30/9 18/23/9 22/25/9
f 18/23/9 16/26/9 21/24/9
f 16/26/9 14/27/9 23/5/9
f 14/27/9 12/29/9 24/28/9
