# Blender v2.76 (sub 0) OBJ File: 'sovereign_corridor_v2.blend'
# www.blender.org

mtllib sovereign_corridor.mtl

o corridor_middle_left_Box001.005

v 0.050000 0.000000 0.000000
v 0.050000 0.000000 0.950000
v 0.150000 0.950000 0.000000
v 0.150000 0.950000 0.950000
v 0.250000 1.000000 0.000000
v 0.250000 1.000000 0.950000
v 0.290000 0.000000 0.900000
v 0.290000 0.000000 1.000000
v 0.330000 0.330000 0.900000
v 0.330000 0.330000 1.000000
v 0.380000 0.670000 0.900000
v 0.380000 0.670000 1.000000
v 0.440000 1.000000 0.900000
v 0.440000 1.000000 1.000000
v 0.000000 1.000000 1.000000
v 0.000000 0.670000 1.000000
v 0.000000 0.330000 1.000000
v 0.000000 0.000000 1.000000
v 0.020000 1.000000 0.900000
v 0.020000 0.670000 0.900000
v 0.020000 0.330000 0.900000
v 0.020000 0.000000 0.900000

vt 1.000000 0.000000
vt 1.000000 0.906250
vt 0.050000 0.906250
vt 1.000000 1.000000
vt 0.050000 1.000000
vt 0.050000 -0.000000
vt 0.000000 0.333000
vt 0.000000 0.000000
vt 0.101562 0.000000
vt 0.000000 0.666000
vt 0.101562 0.333000
vt 0.000000 1.000000
vt 0.101562 0.666000
vt 0.459973 0.666000
vt 0.522473 0.999871
vt 0.413098 0.333000
vt 0.370129 0.000000
vt 0.101562 1.000000
vt 0.101562 0.999871
vt 0.379950 0.669911
vt 0.439942 0.999867
vt 0.000000 0.999867
vt 0.329956 0.329956
vt 0.000000 0.669911
vt 0.289962 0.000000
vt 0.000000 0.329956

vn 0.994500 -0.104700 -0.000000
vn 0.447200 -0.894400 0.000000
vn 0.992700 -0.120300 0.000000
vn 0.989400 -0.145500 0.000000
vn 0.983900 -0.178900 0.000000
vn -0.000000 0.000000 -1.000000
vn 0.000000 0.000000 1.000000

usemtl tex_corridor_middle_left
f 1/1/1 3/2/1 4/3/1
f 3/2/2 5/4/2 6/5/2
f 2/6/1 1/1/1 4/3/1
f 4/3/2 3/2/2 6/5/2

usemtl tex_corridor_brace_middle
f 10/7/3 8/8/3 7/9/3
f 12/10/4 10/7/4 9/11/4
f 14/12/5 12/10/5 11/13/5
f 11/13/6 20/14/6 19/15/6
f 9/11/6 21/16/6 20/14/6
f 7/9/6 22/17/6 21/16/6
f 9/11/3 10/7/3 7/9/3
f 11/13/4 12/10/4 9/11/4
f 13/18/5 14/12/5 11/13/5
f 13/19/6 11/13/6 19/15/6
f 11/13/6 9/11/6 20/14/6
f 9/11/6 7/9/6 21/16/6

usemtl tex_corridor_brace_end_middle
f 12/20/7 14/21/7 15/22/7
f 10/23/7 12/20/7 16/24/7
f 8/25/7 10/23/7 17/26/7
f 16/24/7 12/20/7 15/22/7
f 17/26/7 10/23/7 16/24/7
f 18/8/7 8/25/7 17/26/7
