# Blender v2.76 (sub 0) OBJ File: 'sovereign_corridor_v2.blend'
# www.blender.org

mtllib sovereign_corridor.mtl

o Box001.010

v 1.000000 -0.000000 0.050000
v 1.000000 0.950000 0.150000
v 1.000000 1.000000 0.250000
v 0.050000 0.000000 1.000000
v 0.150000 0.950000 1.000000
v 0.250000 1.000000 1.000000

vt 0.922994 0.906250
vt 0.076992 0.906250
vt 0.025703 0.000000
vt 0.128359 1.000000
vt 0.974303 0.000000
vt 0.871644 1.000000

vn 0.705200 -0.074200 0.705200
vn 0.408200 -0.816500 0.408200

usemtl tex_corridor_diag_middle_flush
f 2/1/1 5/2/1 4/3/1
f 6/4/2 5/2/2 2/1/2
f 1/5/1 2/1/1 4/3/1
f 3/6/2 6/4/2 2/1/2
