# Blender v2.76 (sub 0) OBJ File: 'sovereign_corridor_v2.blend'
# www.blender.org

mtllib sovereign_corridor.mtl

o corridor_middle_flush_Box001.007

v 0.050000 0.000000 0.000000
v 0.050000 0.000000 1.000000
v 0.150000 0.950000 0.000000
v 0.150000 0.950000 1.000000
v 0.250000 1.000000 0.000000
v 0.250000 1.000000 1.000000

vt 1.000000 0.000000
vt 1.000000 0.906250
vt 0.000000 0.906250
vt 1.000000 1.000000
vt -0.000000 1.000000
vt -0.000000 0.000000

vn 0.994500 -0.104700 -0.000000
vn 0.447200 -0.894400 0.000000

usemtl tex_corridor_middle_flush
f 1/1/1 3/2/1 4/3/1
f 3/2/2 5/4/2 6/5/2
f 2/6/1 1/1/1 4/3/1
f 4/3/2 3/2/2 6/5/2
