# Blender v2.76 (sub 0) OBJ File: 'sovereign_corridor_v2.blend'
# www.blender.org

mtllib sovereign_corridor.mtl

o corridor_top_flush_Box001.006

v 0.250000 0.000000 0.000000
v 0.250000 0.000000 1.000000
v 0.350000 0.450000 0.000000
v 0.350000 0.450000 1.000000
v 0.450000 0.500000 0.000000
v 0.450000 0.500000 1.000000
v 0.550000 0.900000 0.000000
v 0.550000 0.900000 1.000000
v 0.550000 1.000000 0.000000
v 0.550000 1.000000 1.000000

vt 1.000000 -0.000000
vt 1.000000 0.406250
vt -0.000000 0.406250
vt 1.000000 0.500000
vt -0.000000 0.500000
vt 1.000000 0.906250
vt 0.000000 0.906250
vt 0.000000 1.000000
vt -0.000000 0.000000
vt 1.000000 1.000000

vn 0.976200 -0.216900 0.000000
vn 0.447200 -0.894400 0.000000
vn 0.970100 -0.242500 -0.000000
vn 1.000000 0.000000 -0.000000

usemtl tex_corridor_top_flush
f 1/1/1 3/2/1 4/3/1
f 3/2/2 5/4/2 6/5/2
f 7/6/3 8/7/3 6/5/3
f 10/8/4 8/7/4 7/6/4
f 2/9/1 1/1/1 4/3/1
f 4/3/2 3/2/2 6/5/2
f 5/4/3 7/6/3 6/5/3
f 9/10/4 10/8/4 7/6/4
