# Blender v2.76 (sub 0) OBJ File: 'sovereign_corridor_v2.blend'
# www.blender.org

mtllib sovereign_corridor.mtl

o Box001.000_Box001.014

v 0.025000 -0.000000 0.025000
v 0.075000 0.950000 0.075000
v 0.125000 1.000000 0.125000
v 0.000000 -0.000000 0.050000
v 0.000000 0.950000 0.150000
v 0.000000 1.000000 0.250000
v 0.050000 -0.000000 0.000000
v 0.150000 0.950000 0.000000
v 0.250000 1.000000 0.000000

vt 0.000000 1.000000
vt 0.000000 0.906250
vt 0.076992 0.906250
vt 0.000000 0.000000
vt 0.025703 0.000000
vt 1.000000 1.000000
vt 0.871644 1.000000
vt 0.922994 0.906250
vt 1.000000 0.906250
vt 0.974303 0.000000
vt 0.128359 1.000000
vt 1.000000 0.000000

vn 0.408200 -0.816500 0.408200
vn 0.705200 -0.074200 0.705200

usemtl tex_corridor_diag_middle_flush
f 3/1/1 2/2/1 8/3/1
f 2/2/2 1/4/2 7/5/2
f 3/6/1 6/7/1 5/8/1
f 2/9/2 5/8/2 4/10/2
f 9/11/1 3/1/1 8/3/1
f 8/3/2 2/2/2 7/5/2
f 2/9/1 3/6/1 5/8/1
f 1/12/2 2/9/2 4/10/2
