# Blender v2.76 (sub 0) OBJ File: 'sovereign_corridor_v2.blend'
# www.blender.org

mtllib sovereign_corridor.mtl

o Box001.003_Box001.017

v 1.000000 0.000000 0.250000
v 1.000000 0.450000 0.350000
v 1.000000 0.500000 0.450000
v 1.000000 0.900000 0.550000
v 1.000000 1.000000 0.550000
v 0.720000 0.000000 0.790000
v 0.790000 0.000000 0.720000
v 0.760000 0.250000 0.830000
v 0.830000 0.250000 0.760000
v 0.810000 0.500000 0.880000
v 0.880000 0.500000 0.810000
v 0.930000 0.900000 1.000000
v 1.000000 0.900000 0.930000
v 0.930000 1.000000 1.000000
v 1.000000 1.000000 0.930000
v 0.480000 0.900000 0.410000
v 0.480000 1.000000 0.410000
v 0.250000 0.000000 1.000000
v 0.350000 0.450000 1.000000
v 0.450000 0.500000 1.000000
v 0.550000 0.900000 1.000000
v 0.550000 1.000000 1.000000
v 0.480000 0.000000 0.410000
v 0.480000 0.250000 0.410000
v 0.480000 0.500000 0.410000
v 0.430000 1.000000 0.500000
v 0.430000 0.900000 0.500000
v 0.430000 0.500000 0.500000
v 0.430000 0.250000 0.500000
v 0.430000 0.000000 0.500000

vt 0.250000 0.500000
vt 0.171875 0.406250
vt 0.828125 0.406250
vt 0.281250 0.906250
vt 0.750000 0.500000
vt 0.718752 0.906250
vt 0.718748 1.000000
vt 0.281250 1.000000
vt 0.128359 0.000000
vt 0.871641 0.000000
vt 0.281250 0.906250
vt 0.000000 0.250000
vt 0.000000 0.000000
vt 0.101562 0.000000
vt 0.101562 0.250000
vt 0.101562 0.500000
vt 0.000000 0.500000
vt 0.101562 0.906250
vt 0.000000 0.906250
vt 0.101562 1.000000
vt 0.820312 0.906250
vt 0.820312 1.000000
vt 0.539062 0.000000
vt 0.597656 0.250000
vt 0.671875 0.500000
vt 0.640625 0.500000
vt 0.570312 0.250000
vt 0.515625 0.000000
vt 0.000000 1.000000

vn 0.408200 -0.816500 0.408200
vn 0.696300 -0.174100 0.696300
vn 0.707100 0.000000 0.707100
vn 0.698500 -0.155200 0.698500
vn 0.689700 -0.220700 0.689700
vn 0.680400 -0.272200 0.680400
vn 0.650900 -0.390600 0.650900
vn 0.707100 0.000000 -0.707100
vn -0.707100 0.000000 0.707100

usemtl tex_corridor_diag_top_split
f 20/1/1 19/2/1 2/3/1
f 21/4/2 20/1/2 3/5/2
f 4/6/3 5/7/3 22/8/3
f 19/2/4 18/9/4 1/10/4
f 3/5/1 20/1/1 2/3/1
f 4/6/2 21/4/2 3/5/2
f 21/11/3 4/6/3 22/8/3
f 2/3/4 19/2/4 1/10/4

usemtl tex_corridor_brace_top
f 8/12/5 6/13/5 7/14/5
f 8/12/6 9/15/6 11/16/6
f 10/17/7 11/16/7 13/18/7
f 12/19/3 13/18/3 15/20/3
f 13/18/8 16/21/8 17/22/8
f 7/14/8 23/23/8 24/24/8
f 9/15/8 24/24/8 25/25/8
f 11/16/8 25/25/8 16/21/8
f 26/20/9 27/18/9 12/21/9
f 10/26/9 12/21/9 27/18/9
f 8/27/9 10/26/9 28/16/9
f 6/28/9 8/27/9 29/15/9
f 9/15/5 8/12/5 7/14/5
f 10/17/6 8/12/6 11/16/6
f 12/19/7 10/17/7 13/18/7
f 14/29/3 12/19/3 15/20/3
f 15/20/8 13/18/8 17/22/8
f 9/15/8 7/14/8 24/24/8
f 11/16/8 9/15/8 25/25/8
f 13/18/8 11/16/8 16/21/8
f 14/22/9 26/20/9 12/21/9
f 28/16/9 10/26/9 27/18/9
f 29/15/9 8/27/9 28/16/9
f 30/14/9 6/28/9 29/15/9
