# Blender v2.76 (sub 0) OBJ File: 'sovereign_corridor_v2.blend'
# www.blender.org

mtllib sovereign_corridor.mtl

o corridor_diag_a_btm_split_Box001.013

v 1.000000 -0.000000 0.050000
v 1.000000 0.200000 0.050000
v 1.000000 0.850000 0.260000
v 1.000000 1.000000 0.050000
v 0.590000 0.500000 0.660000
v 0.586624 -0.000000 0.653376
v 0.653376 -0.000000 0.586624
v 0.660000 0.500000 0.590000
v 0.610000 1.000000 0.680000
v 0.680000 1.000000 0.610000
v 0.430000 0.500000 0.500000
v 0.430000 -0.000000 0.500000
v 0.050000 0.200000 1.000000
v 0.050000 -0.000000 1.000000
v 0.050000 1.000000 1.000000
v 0.260000 0.850000 1.000000
v 0.480000 0.500000 0.410000
v 0.480000 1.000000 0.410000
v 0.480000 -0.000000 0.410000
v 0.430000 1.000000 0.500000

vt 0.866602 0.812500
vt 0.133398 0.812500
vt 0.025742 0.187500
vt 0.974258 0.000000
vt 0.974258 0.187500
vt 0.974258 1.000000
vt 0.025742 1.000000
vt 0.025742 0.000000
vt 0.000000 0.000000
vt 0.101562 0.000000
vt 0.101562 0.500000
vt 0.000000 0.500000
vt 0.101562 1.000000
vt 0.328125 0.500000
vt 0.320312 0.000000
vt 0.355469 0.500000
vt 0.382812 0.999998
vt 0.347656 0.000000
vt 0.355469 1.000000
vt 0.000000 1.000000

vn 0.689300 -0.222700 0.689300
vn 0.707100 0.000000 0.707100
vn 0.502500 0.703500 0.502500
vn 0.707000 -0.014100 0.707000
vn 0.706000 -0.056500 0.706000
vn -0.699700 0.000000 0.714500
vn 0.707100 0.000000 -0.707100
vn 0.713600 0.000000 -0.700500
vn -0.707100 0.000000 0.707100
vn -0.707100 -0.004600 0.707100
vn 0.707100 -0.004600 -0.707100

usemtl tex_corridor_diag_btm_split
f 3/1/1 16/2/1 13/3/1
f 1/4/2 2/5/2 13/3/2
f 3/1/3 4/6/3 15/7/3
f 2/5/1 3/1/1 13/3/1
f 14/8/2 1/4/2 13/3/2
f 16/2/3 3/1/3 15/7/3

usemtl tex_corridor_brace_btm
f 6/9/4 7/10/4 8/11/4
f 5/12/5 8/11/5 10/13/5
f 11/14/6 12/15/6 6/10/6
f 8/11/7 17/16/7 18/17/7
f 7/10/8 19/18/8 17/16/8
f 5/11/9 9/13/9 20/19/9
f 5/12/4 6/9/4 8/11/4
f 9/20/5 5/12/5 10/13/5
f 5/11/10 11/14/10 6/10/10
f 10/13/7 8/11/7 18/17/7
f 8/11/11 7/10/11 17/16/11
f 11/14/9 5/11/9 20/19/9
