# Blender v2.76 (sub 0) OBJ File: 'tng_angled_corridor_alt.blend'
# www.blender.org
mtllib tng_angled_corridor_alt.mtl

o corridor_middle_split
v 0.450000 0.000000 0.593750
v 0.450000 0.000000 0.406250
v 0.650000 1.000000 0.593750
v 0.650000 1.000000 0.406250
v 0.200000 0.000000 0.406250
v 0.400000 1.000000 0.406250
v 0.350000 0.000000 1.000000
v 0.350000 0.000000 0.000000
v 0.550000 1.000000 1.000000
v 0.550000 1.000000 0.000000
v 0.200000 0.000000 0.593750
v 0.400000 1.000000 0.593750

vt 0.000000 0.000000
vt 1.000000 0.000000
vt 1.000000 1.000000
vt -0.000000 1.000000
vt 0.187500 0.000000
vt 0.187500 1.000000
vt 0.375000 0.000000
vt 0.375000 1.000000

vn 0.980600 -0.196100 0.000000
vn 0.000000 0.000000 -1.000000
vn 0.000000 0.000000 1.000000

usemtl tex_middle
f 7/1/1 8/2/1 10/3/1
f 9/4/1 7/1/1 10/3/1
usemtl tex_brace
f 1/1/1 2/5/1 4/6/1
f 2/5/2 5/7/2 6/8/2
f 1/5/3 3/6/3 12/8/3
f 3/4/1 1/1/1 4/6/1
f 4/6/2 2/5/2 6/8/2
f 11/7/3 1/5/3 12/8/3
