# Blender v2.76 (sub 0) OBJ File: 'tng_angled_corridor_alt.blend'
# www.blender.org
mtllib tng_angled_corridor_alt.mtl

o corridor_btm_right_Cube.011
v 0.000000 0.000000 0.000000
v 0.000000 1.000000 0.000000
v 0.000000 0.650000 0.000000
v 0.999997 0.000000 0.000000
v 0.450000 1.000000 0.000000
v 0.374997 0.650000 0.000000
v 1.000000 0.000000 0.187500
v 0.375000 0.650000 0.187500
v 0.450000 1.000000 0.187500
v 0.900000 0.000000 0.000000
v 0.350000 1.000000 0.000000
v 0.275000 0.625000 0.000000
v 0.900000 0.000000 1.000000
v 0.275000 0.625000 1.000000
v 0.350000 1.000000 1.000000
v 0.750000 0.000000 0.187500
v 0.125000 0.600000 0.187500
v 0.200000 1.000000 0.187500

vt 0.000000 0.687500
vt 0.000000 0.000000
vt 0.187500 0.000000
vt 0.187500 0.687500
vt 0.187500 1.000000
vt 0.375000 1.000000
vt 0.375000 0.687500
vt 0.375000 0.000000
vt 0.000000 1.000000
vt 0.000000 0.700000
vt 1.000000 0.000000
vt 1.000000 0.700000
vt 1.000000 1.000000
vt 0.375000 0.648438
vt 0.449000 1.000000
vt 0.000000 0.648438

vn 0.720800 0.693100 -0.000000
vn 0.977800 -0.209500 -0.000000
vn 0.000000 0.000000 1.000000
vn 0.707100 0.707100 0.000000
vn 0.980600 -0.196100 0.000000
vn 0.000000 0.000000 -1.000000

usemtl tex_brace
f 8/1/1 7/2/1 4/3/1
f 8/1/2 6/4/2 5/5/2
f 8/4/3 9/5/3 18/6/3
f 8/4/3 17/7/3 16/8/3
f 6/4/1 8/1/1 4/3/1
f 9/9/2 8/1/2 5/5/2
f 17/7/3 8/4/3 18/6/3
f 7/3/3 8/4/3 16/8/3

usemtl tex_btm
f 14/10/4 13/2/4 10/11/4
f 12/12/5 11/13/5 15/9/5
f 12/12/4 14/10/4 10/11/4
f 14/10/5 12/12/5 15/9/5

usemtl tex_brace_end_btm
f 6/14/6 4/11/6 1/2/6
f 2/9/6 5/15/6 6/14/6
f 3/16/6 6/14/6 1/2/6
f 3/16/6 2/9/6 6/14/6
