# Blender v2.76 (sub 0) OBJ File: 'tng_angled_corridor_alt.blend'
# www.blender.org
mtllib tng_angled_corridor_alt.mtl

o corridor_btm_cargo_right_Cube.017
v 0.000000 1.000000 0.000000
v 0.450000 1.000000 0.000000
v 0.000000 0.625000 0.000000
v 0.375000 0.625000 0.000000
v 0.000000 0.625000 0.000000
v 0.000000 0.000000 0.000000
v 0.500000 0.625000 0.000000
v 1.000000 0.000000 0.000000
v 0.450000 1.000000 0.000000
v 0.374997 0.625000 0.000000
v 0.375000 0.625000 0.187500
v 0.450000 1.000000 0.187500
v 1.000000 0.000000 0.000000
v 0.350000 1.000000 0.000000
v 0.500000 0.625000 0.000000
v 1.000000 0.000000 1.000000
v 0.500000 0.625000 1.000000
v 0.350000 1.000000 1.000000
v 0.125000 0.625000 0.187500
v 0.200000 1.000000 0.187500
v 0.275000 0.625000 0.000000
v 0.275000 0.625000 1.000000

vt 0.000000 0.687500
vt 0.187500 0.687500
vt 0.187500 1.000000
vt 0.375000 1.000000
vt 0.000000 1.000000
vt 0.375000 0.687500
vt 0.449219 1.000000
vt 0.375000 0.625000
vt 0.500000 0.625000
vt 1.000000 0.000000
vt 0.000000 0.000000
vt 0.000000 0.625000
vt 0.000000 0.562500
vt 0.000000 0.750000
vt 1.000000 0.750000
vt 1.000000 1.000000
vt 1.000000 0.562500

vn 0.980600 -0.196100 -0.000000
vn 0.000000 0.000000 1.000000
vn 0.000000 0.000000 -1.000000
vn 0.780900 0.624700 0.000000
vn -0.000000 1.000000 0.000000

usemtl tex_brace
f 11/1/1 10/2/1 9/3/1
f 11/2/2 12/3/2 20/4/2
f 12/5/1 11/1/1 9/3/1
f 19/6/2 11/2/2 20/4/2
usemtl tex_cargo_brace_end
f 1/5/3 2/7/3 4/8/3
f 7/9/3 8/10/3 6/11/3
f 3/12/3 1/5/3 4/8/3
f 5/12/3 7/9/3 6/11/3
usemtl tex_cargo_btm
f 17/13/4 16/11/4 13/10/4
f 22/14/1 21/15/1 14/16/1
f 15/17/5 21/15/5 22/14/5
f 15/17/4 17/13/4 13/10/4
f 18/5/1 22/14/1 14/16/1
f 17/13/5 15/17/5 22/14/5
