# Blender v2.76 (sub 0) OBJ File: 'tng_angled_corridor_alt.blend'
# www.blender.org
mtllib tng_angled_corridor_alt.mtl

o corridor_btm_split_Cube.005
v 0.999997 0.000000 0.406250
v 0.450000 1.000000 0.406250
v 0.374997 0.650000 0.406250
v 1.000000 0.000000 0.593750
v 0.375000 0.650000 0.593750
v 0.450000 1.000000 0.593750
v 0.750000 0.000000 0.406250
v 0.200000 1.000000 0.406250
v 0.125000 0.600000 0.406250
v 0.900000 0.000000 0.000000
v 0.350000 1.000000 0.000000
v 0.275000 0.625000 0.000000
v 0.900000 0.000000 1.000000
v 0.275000 0.625000 1.000000
v 0.350000 1.000000 1.000000
v 0.750000 0.000000 0.593750
v 0.125000 0.600000 0.593750
v 0.200000 1.000000 0.593750

vt 0.000000 0.687500
vt 0.000000 0.000000
vt 0.187500 0.000000
vt 0.187500 0.687500
vt 0.187500 1.000000
vt 0.375000 0.000000
vt 0.375000 0.687500
vt 0.375000 1.000000
vt 0.000000 1.000000
vt 0.000000 0.700000
vt 1.000000 0.000000
vt 1.000000 0.700000
vt 1.000000 1.000000

vn 0.720800 0.693100 -0.000000
vn 0.977800 -0.209500 -0.000000
vn 0.000000 0.000000 -1.000000
vn 0.000000 0.000000 1.000000
vn 0.707100 0.707100 0.000000
vn 0.980600 -0.196100 0.000000

usemtl tex_brace
f 5/1/1 4/2/1 1/3/1
f 5/1/2 3/4/2 2/5/2
f 3/4/3 1/3/3 7/6/3
f 3/4/3 9/7/3 8/8/3
f 5/4/4 6/5/4 18/8/4
f 5/4/4 17/7/4 16/6/4
f 3/4/1 5/1/1 1/3/1
f 6/9/2 5/1/2 2/5/2
f 9/7/3 3/4/3 7/6/3
f 2/5/3 3/4/3 8/8/3
f 17/7/4 5/4/4 18/8/4
f 4/3/4 5/4/4 16/6/4

usemtl tex_btm
f 14/10/5 13/2/5 10/11/5
f 12/12/6 11/13/6 15/9/6
f 12/12/5 14/10/5 10/11/5
f 14/10/6 12/12/6 15/9/6
