# Blender v2.76 (sub 0) OBJ File: 'tng_angled_corridor_alt.blend'
# www.blender.org
mtllib tng_angled_corridor_alt.mtl

o corridor_middle_left_Cube.007
v 0.000000 0.000000 1.000000
v 0.000000 1.000000 1.000000
v 0.650000 1.000000 1.000000
v 0.450000 0.000000 1.000000
v 0.450000 0.000000 0.812500
v 0.650000 1.000000 0.812500
v 0.200000 0.000000 0.812500
v 0.400000 1.000000 0.812500
v 0.350000 0.000000 1.000000
v 0.350000 0.000000 0.000000
v 0.550000 1.000000 1.000000
v 0.550000 1.000000 0.000000

vt 0.000000 0.000000
vt 1.000000 0.000000
vt 1.000000 1.000000
vt -0.000000 1.000000
vt 0.187500 0.000000
vt 0.375000 0.000000
vt 0.375000 1.000000
vt 0.187500 1.000000
vt 0.445312 0.000000
vt 0.687500 1.000000

vn 0.980600 -0.196100 0.000000
vn 0.000000 0.000000 -1.000000
vn 0.000000 0.000000 1.000000

usemtl tex_middle
f 9/1/1 10/2/1 12/3/1
f 11/4/1 9/1/1 12/3/1
usemtl tex_brace
f 5/5/2 7/6/2 8/7/2
f 3/4/1 4/1/1 5/5/1
f 6/8/2 5/5/2 8/7/2
f 6/8/1 3/4/1 5/5/1
usemtl tex_brace_end_middle
f 2/4/3 1/1/3 4/9/3
f 3/10/3 2/4/3 4/9/3
