# Blender v2.76 (sub 0) OBJ File: 'tng_angled_corridor_alt.blend'
# www.blender.org
mtllib tng_angled_corridor_alt.mtl

o corridor_top_split_Cube.003
v 0.650000 0.000000 0.593750
v 0.650000 0.000000 0.406250
v 1.000000 0.436250 0.593750
v 1.000000 1.000000 0.593750
v 0.687500 0.123750 0.593750
v 1.000000 1.000000 0.406250
v 1.000000 0.436250 0.406250
v 0.687500 0.123750 0.406250
v 0.400000 0.000000 0.406250
v 0.800000 1.000000 0.406250
v 0.800000 0.560000 0.406250
v 0.493403 0.240000 0.406250
v 0.550000 0.000000 1.000000
v 0.550000 0.000000 0.000000
v 0.900000 0.500000 1.000000
v 0.899999 1.000000 1.000000
v 0.587500 0.187500 1.000000
v 0.900000 1.000000 0.000000
v 0.900000 0.500000 0.000000
v 0.587500 0.187500 0.000000
v 0.400000 0.000000 0.593750
v 0.800000 0.560000 0.593750
v 0.850508 1.000000 0.593750
v 0.493402 0.240000 0.593750

vt 0.187500 0.625000
vt 0.187500 1.000000
vt 0.000000 1.000000
vt 0.187500 0.187500
vt 0.000000 0.625000
vt 0.000000 0.187500
vt 0.000000 0.000000
vt 0.187500 0.000000
vt 0.375000 0.000000
vt 0.375000 0.187500
vt 0.375000 0.625000
vt 0.375000 1.000000
vt 1.000000 1.000000
vt 0.000000 0.590000
vt 1.000000 0.195000
vt 1.000000 0.590000
vt 0.000000 0.195000
vt 1.000000 0.000000

vn 1.000000 -0.000000 0.000000
vn 0.707100 -0.707100 -0.000000
vn 0.957000 -0.290000 0.000000
vn 0.000000 0.000000 -1.000000
vn 0.000000 0.000000 1.000000
vn 0.980600 -0.196100 0.000000

usemtl tex_brace
f 7/1/1 6/2/1 4/3/1
f 8/4/2 7/1/2 3/5/2
f 5/6/3 1/7/3 2/8/3
f 2/8/4 9/9/4 12/10/4
f 8/4/4 12/10/4 11/11/4
f 6/2/4 7/1/4 11/11/4
f 1/8/5 5/4/5 24/10/5
f 5/4/5 3/1/5 22/11/5
f 4/2/5 23/12/5 22/11/5
f 3/5/1 7/1/1 4/3/1
f 5/6/2 8/4/2 3/5/2
f 8/4/3 5/6/3 2/8/3
f 8/4/4 2/8/4 12/10/4
f 7/1/4 8/4/4 11/11/4
f 10/12/4 6/2/4 11/11/4
f 21/9/5 1/8/5 24/10/5
f 24/10/5 5/4/5 22/11/5
f 3/1/5 4/2/5 22/11/5

usemtl tex_top
f 18/13/1 16/3/1 15/14/1
f 20/15/2 19/16/2 15/14/2
f 20/15/6 17/17/6 13/7/6
f 19/16/1 18/13/1 15/14/1
f 17/17/2 20/15/2 15/14/2
f 14/18/6 20/15/6 13/7/6
