# Blender v2.76 (sub 0) OBJ File: 'tng_angled_corridor_alt.blend'
# www.blender.org
mtllib tng_angled_corridor_alt.mtl

o corridor_middle_split_Cube.004
v 0.450000 0.000000 0.593750
v 0.450000 0.000000 0.406250
v 0.650000 1.000000 0.593750
v 0.650000 1.000000 0.406250
v 0.200000 0.000000 0.406250
v 0.400000 1.000000 0.406250
v 0.350000 0.000000 1.000000
v 0.350000 0.000000 0.000000
v 0.550000 1.000000 1.000000
v 0.550000 1.000000 0.000000
v 0.200000 0.000000 0.593750
v 0.400000 1.000000 0.593750

vt 0.000000 0.000000
vt 0.187500 0.000000
vt 0.187500 1.000000
vt 0.375000 0.000000
vt 0.375000 1.000000
vt -0.000000 1.000000
vt 1.000000 0.000000
vt 1.000000 1.000000

vn 0.980600 -0.196100 0.000000
vn 0.000000 0.000000 -1.000000
vn 0.000000 0.000000 1.000000

usemtl tex_brace
f 1/1/1 2/2/1 4/3/1
f 2/2/2 5/4/2 6/5/2
f 1/2/3 3/3/3 12/5/3
f 3/6/1 1/1/1 4/3/1
f 4/3/2 2/2/2 6/5/2
f 11/4/3 1/2/3 12/5/3

usemtl tex_middle
f 7/1/1 8/7/1 10/8/1
f 9/6/1 7/1/1 10/8/1
