# Blender v2.76 (sub 0) OBJ File: 'tng_angled_corridor_alt.blend'
# www.blender.org
mtllib tng_angled_corridor_alt.mtl


o corridor_top_left_Cube.006
v 0.000000 0.000000 1.000000
v 0.000000 1.000000 1.000000
v 0.000000 0.436250 1.000000
v 0.000000 0.123750 1.000000
v 0.650000 0.000000 1.000000
v 0.687500 0.123750 1.000000
v 0.649997 0.000000 0.812500
v 1.000000 0.436250 1.000000
v 1.000000 1.000000 1.000000
v 0.999997 1.000000 0.812500
v 0.999997 0.436250 0.812500
v 0.687497 0.123750 0.812500
v 0.399997 0.000000 0.812500
v 0.799997 1.000000 0.812500
v 0.799997 0.560000 0.812500
v 0.493400 0.240000 0.812500
v 0.550000 0.000000 1.000000
v 0.550000 0.000000 0.000000
v 0.900000 0.500000 1.000000
v 0.899999 1.000000 1.000000
v 0.587500 0.187500 1.000000
v 0.900000 1.000000 0.000000
v 0.900000 0.500000 0.000000
v 0.587500 0.187500 0.000000

vt 1.000000 1.000000
vt 0.000000 1.000000
vt 0.000000 0.625000
vt 1.000000 0.187500
vt 1.000000 0.625000
vt 0.000000 0.187500
vt 0.000000 0.000000
vt 1.000000 0.000000
vt 0.187500 0.625000
vt 0.187500 1.000000
vt 0.187500 0.187500
vt 0.187500 0.000000
vt 0.375000 0.000000
vt 0.375000 0.187500
vt 0.375000 0.625000
vt 0.375000 1.000000
vt 0.000000 0.433594
vt 0.000000 0.179688
vt 0.746094 0.179688
vt 0.699219 0.000000
vt 1.000000 0.433594

vn 1.000000 0.000000 0.000000
vn 0.707100 -0.707100 0.000000
vn 0.980600 -0.196100 0.000000
vn 0.957000 -0.290000 -0.000000
vn 0.000000 0.000000 -1.000000
vn 0.000000 0.000000 1.000000

usemtl tex_top
f 22/1/1 20/2/1 19/3/1
f 24/4/2 23/5/2 19/3/2
f 24/4/3 21/6/3 17/7/3
f 23/5/1 22/1/1 19/3/1
f 21/6/2 24/4/2 19/3/2
f 18/8/3 24/4/3 17/7/3
usemtl tex_brace
f 11/9/1 10/10/1 9/2/1
f 12/11/4 6/6/4 5/7/4
f 7/12/5 13/13/5 16/14/5
f 12/11/5 16/14/5 15/15/5
f 10/10/5 11/9/5 15/15/5
f 6/6/2 12/11/2 11/9/2
f 8/3/1 11/9/1 9/2/1
f 7/12/4 12/11/4 5/7/4
f 12/11/5 7/12/5 16/14/5
f 11/9/5 12/11/5 15/15/5
f 14/16/5 10/10/5 15/15/5
f 8/3/2 6/6/2 11/9/2
usemtl tex_brace_end_top
f 3/17/6 4/18/6 6/19/6
f 4/18/6 1/7/6 5/20/6
f 3/17/6 8/21/6 9/1/6
f 8/21/6 3/17/6 6/19/6
f 6/19/6 4/18/6 5/20/6
f 2/2/6 3/17/6 9/1/6
