# Blender v2.76 (sub 0) OBJ File: 'tng_angled_corridor_alt.blend'
# www.blender.org
mtllib tng_angled_corridor_alt.mtl

o corridor_btm_left_Cube.008
v 0.000000 0.000000 1.000000
v 0.000000 1.000000 1.000000
v 0.000000 0.650000 1.000000
v 0.999997 0.000000 1.000000
v 0.999997 0.000000 0.812500
v 0.450000 1.000000 0.812500
v 0.374997 0.650000 0.812500
v 0.374997 0.650000 1.000000
v 0.449997 1.000000 1.000000
v 0.750000 0.000000 0.812500
v 0.200000 1.000000 0.812500
v 0.125000 0.600000 0.812500
v 0.900000 0.000000 0.000000
v 0.350000 1.000000 0.000000
v 0.275000 0.625000 0.000000
v 0.900000 0.000000 1.000000
v 0.275000 0.625000 1.000000
v 0.350000 1.000000 1.000000

vt 0.000000 0.000000
vt 1.000000 0.000000
vt 0.375022 0.649970
vt 0.000000 0.999900
vt 0.000000 0.649970
vt 0.450000 0.999900
vt 0.000000 0.687500
vt 0.187500 0.000000
vt 0.187500 0.687500
vt 0.187500 1.000000
vt 0.000000 1.000000
vt 0.375000 0.000000
vt 0.375000 0.687500
vt 0.375000 1.000000
vt 0.000000 0.700000
vt 1.000000 0.700000
vt 1.000000 1.000000

vn 0.000000 0.000000 1.000000
vn 0.720800 0.693100 0.000000
vn 0.977800 -0.209500 0.000000
vn 0.000000 0.000000 -1.000000
vn 0.707100 0.707100 0.000000
vn 0.980600 -0.196100 0.000000

usemtl tex_brace_end_btm
f 1/1/1 4/2/1 8/3/1
f 2/4/1 3/5/1 8/3/1
f 3/5/1 1/1/1 8/3/1
f 9/6/1 2/4/1 8/3/1

usemtl tex_brace
f 8/7/2 4/1/2 5/8/2
f 7/9/3 6/10/3 9/11/3
f 7/9/4 5/8/4 10/12/4
f 7/9/4 12/13/4 11/14/4
f 7/9/2 8/7/2 5/8/2
f 8/7/3 7/9/3 9/11/3
f 12/13/4 7/9/4 10/12/4
f 6/10/4 7/9/4 11/14/4

usemtl tex_btm
f 17/15/5 16/1/5 13/2/5
f 15/16/6 14/17/6 18/11/6
f 15/16/5 17/15/5 13/2/5
f 17/15/6 15/16/6 18/11/6
