# Blender v2.76 (sub 0) OBJ File: 'tng_angled_corridor_alt.blend'
# www.blender.org
mtllib tng_angled_corridor_alt.mtl

o corridor_btm_flush
v 1.000000 0.000000 0.000000
v 1.000000 0.000000 1.000000
v 1.000000 0.000000 0.000000
v 1.000000 0.000000 0.187500
v 0.900000 0.000000 0.000000
v 0.900000 0.000000 1.000000
v 0.900000 0.000000 0.000000
v 0.350000 1.000000 0.000000
v 0.275000 0.625000 0.000000
v 0.900000 0.000000 1.000000
v 0.275000 0.625000 1.000000
v 0.350000 1.000000 1.000000

vt 0.000000 0.687500
vt 0.000000 0.000000
vt 1.000000 0.000000
vt 1.000000 0.687500
vt 1.000000 1.000000
vt 0.000000 1.000000

vn 0.707100 0.707100 0.000000
vn 0.980600 -0.196100 0.000000
vn 0.000000 0.000000 1.000000
vn 1.000000 0.000000 0.000000
vn 0.000000 1.000000 0.000000

usemtl tex_btm
f 11/1/1 10/2/1 7/3/1
f 9/4/2 8/5/2 12/6/2
f 9/4/1 11/1/1 7/3/1
f 11/1/2 9/4/2 12/6/2
usemtl tex_btm
f 4/2/3 2/2/3 1/2/3
f 6/2/4 5/2/4 7/2/4
f 3/2/5 4/2/5 1/2/5
f 10/2/4 6/2/4 7/2/4
