# Blender v2.76 (sub 0) OBJ File: 'tng_angled_corridor_alt.blend'
# www.blender.org
mtllib tng_angled_corridor_alt.mtl

o corridor_btm_left_Cube.008
v 0.000000 0.000000 1.000000
v 0.000000 1.000000 1.000000
v 0.000000 0.650000 1.000000
v 0.999997 0.000000 1.000000
v 1.000000 0.000000 0.000000
v 0.999997 0.000000 0.812500
v 0.450000 1.000000 0.812500
v 0.374997 0.650000 0.812500
v 0.374997 0.650000 1.000000
v 0.449997 1.000000 1.000000
v 0.750000 0.000000 0.812500
v 0.200000 1.000000 0.812500
v 0.125000 0.600000 0.812500
v 0.900000 0.000000 0.000000
v 0.900000 0.000000 1.000000
v 0.900000 0.000000 0.000000
v 0.350000 1.000000 0.000000
v 0.275000 0.625000 0.000000
v 0.900000 0.000000 1.000000
v 0.275000 0.625000 1.000000
v 0.350000 1.000000 1.000000

vt 0.000000 0.687500
vt 0.000000 0.000000
vt 1.000000 0.000000
vt 1.000000 0.687500
vt 1.000000 1.000000
vt 0.000000 1.000000
vt 0.187500 0.000000
vt 0.187500 0.687500
vt 0.187500 1.000000
vt 0.375000 0.000000
vt 0.375000 0.687500
vt 0.375000 1.000000
vt 0.375000 0.625000
vt 0.000000 0.625000
vt 0.445312 1.000000

vn 0.707100 0.707100 0.000000
vn 0.980600 -0.196100 0.000000
vn 1.000000 0.000000 0.000000
vn 0.720800 0.693100 0.000000
vn 0.977800 -0.209500 0.000000
vn 0.000000 0.000000 -1.000000
vn 0.000000 1.000000 0.000000
vn 0.000000 0.000000 1.000000

usemtl tex_btm
f 20/1/1 19/2/1 16/3/1
f 18/4/2 17/5/2 21/6/2
f 18/4/1 20/1/1 16/3/1
f 20/1/2 18/4/2 21/6/2
usemtl tex_btm
f 15/2/3 14/2/3 16/2/3
f 19/2/3 15/2/3 16/2/3
usemtl tex_brace
f 9/1/4 4/2/4 6/7/4
f 8/8/5 7/9/5 10/6/5
f 8/8/6 6/7/6 11/10/6
f 8/8/6 13/11/6 12/12/6
f 8/8/4 9/1/4 6/7/4
f 9/1/5 8/8/5 10/6/5
f 13/11/6 8/8/6 11/10/6
f 7/9/6 8/8/6 12/12/6
usemtl tex_brace
f 4/2/7 5/2/7 6/2/7
usemtl tex_brace_end_btm
f 1/2/8 4/3/8 9/13/8
f 2/6/8 3/14/8 9/13/8
f 3/14/8 1/2/8 9/13/8
f 10/15/8 2/6/8 9/13/8
