# Blender v2.76 (sub 0) OBJ File: 'tng_angled_corridor_alt.blend'
# www.blender.org
mtllib tng_angled_corridor_alt.mtl

o corridor_corner_a_top_Cube.019
v -0.000000 0.000000 0.550000
v -0.000000 1.000000 0.900000
v -0.000000 0.500000 0.900000
v -0.000000 0.187500 0.587500
v 0.550000 0.000000 -0.000000
v 0.900000 0.500000 -0.000000
v 0.899999 1.000000 0.000000
v 0.587500 0.187500 -0.000000

vt 0.254000 0.000000
vt 0.840000 0.000000
vt 0.855000 0.195000
vt 0.238000 0.195000
vt 1.000000 0.590000
vt 0.093750 0.590000
vt 1.000000 1.000000
vt 0.094000 1.000000

vn 0.700100 -0.140000 0.700100
vn 0.577400 -0.577400 0.577400
vn 0.707100 -0.000000 0.707100

usemtl tex_top
f 1/1/1 5/2/1 8/3/1
f 4/4/2 8/3/2 6/5/2
f 3/6/3 6/5/3 7/7/3
f 4/4/1 1/1/1 8/3/1
f 3/6/2 4/4/2 6/5/2
f 2/8/3 3/6/3 7/7/3
