# Blender v2.76 (sub 0) OBJ File: 'tng_angled_corridor_alt.blend'
# www.blender.org
mtllib tng_angled_corridor_alt.mtl

o corridor_corner_a_btm_split_Cube.010
v 0.583396 0.000000 0.450813
v 0.306661 1.000000 0.174080
v 0.253626 0.650000 0.121043
v 0.450815 0.000000 0.583398
v 0.121045 0.650000 0.253628
v 0.174080 1.000000 0.306661
v 0.406622 0.000000 0.274039
v 0.129880 1.000000 -0.002698
v 0.076851 0.600000 -0.055731
v 0.274039 0.000000 0.406621
v -0.055731 0.600000 0.076851
v -0.002698 1.000000 0.129880
v -0.000000 0.000000 0.900000
v -0.000000 1.000000 0.350000
v -0.000000 0.625000 0.275000
v 0.900000 0.000000 -0.000000
v 0.275000 0.625000 -0.000000
v 0.350000 1.000000 -0.000000

vt 1.000000 0.000000
vt 0.684000 0.700000
vt 0.406000 0.700000
vt 0.723000 1.000000
vt 0.094000 0.000000
vt 0.371000 1.000000
vt 0.000000 0.687500
vt 0.000000 0.000000
vt 0.187500 0.000000
vt 0.187500 0.687500
vt 0.187500 1.000000
vt 0.375000 0.000000
vt 0.375000 0.687500
vt 0.375000 1.000000
vt 0.000000 1.000000

vn 0.577400 0.577400 0.577300
vn 0.700100 -0.140000 0.700100
vn 0.577400 0.577400 0.577400
vn 0.574500 0.583000 0.574500
vn 0.691400 -0.209500 0.691400
vn 0.707100 0.000000 -0.707100
vn -0.707100 0.000000 0.707100

usemtl tex_btm
f 16/1/1 17/2/1 15/3/1
f 15/3/2 17/2/2 18/4/2
f 13/5/3 16/1/3 15/3/3
f 14/6/2 15/3/2 18/4/2

usemtl tex_brace
f 5/7/4 4/8/4 1/9/4
f 5/7/5 3/10/5 2/11/5
f 3/10/6 1/9/6 7/12/6
f 3/10/6 9/13/6 8/14/6
f 5/10/7 6/11/7 12/14/7
f 5/10/7 11/13/7 10/12/7
f 3/10/4 5/7/4 1/9/4
f 6/15/5 5/7/5 2/11/5
f 9/13/6 3/10/6 7/12/6
f 2/11/6 3/10/6 8/14/6
f 11/13/7 5/10/7 12/14/7
f 4/9/7 5/10/7 10/12/7
