# Blender v2.76 (sub 0) OBJ File: 'tng_angled_corridor_alt.blend'
# www.blender.org
mtllib tng_angled_corridor_alt.mtl

o corridor_corner_b_top_Cube.027
v 0.550000 0.000000 1.000000
v 0.900000 0.500000 1.000000
v 0.900000 1.000000 1.000000
v 0.587500 0.187500 1.000000
v 1.000000 0.000000 0.550000
v 1.000000 0.500000 0.899999
v 1.000000 1.000000 0.899999
v 1.000000 0.187500 0.587500
v 0.749220 0.000000 0.800778
v 0.764089 0.187500 0.823412

vt 1.000000 0.000000
vt 1.000000 0.195000
vt 0.855000 0.195000
vt 1.000000 0.590000
vt 0.094000 0.590000
vt 0.094000 0.999923
vt 0.000000 0.999923
vt 0.000000 0.000000
vt 0.254000 0.000000
vt 0.238000 0.195000
vt 0.000000 0.195000
vt 0.840000 0.000000
vt 0.000000 0.590000

vn 0.700100 -0.140000 0.700100
vn 0.577400 -0.577400 0.577400
vn 0.707100 0.000000 0.707100
vn 0.577400 -0.577400 0.577300

usemtl tex_top
f 9/1/1 10/2/1 4/3/1
f 4/3/2 10/2/2 2/4/2
f 6/5/3 7/6/3 3/7/3
f 9/8/1 5/9/1 8/10/1
f 10/11/2 8/10/2 6/5/2
f 1/12/1 9/1/1 4/3/1
f 2/13/3 6/5/3 3/7/3
f 10/11/1 9/8/1 8/10/1
f 2/13/4 10/11/4 6/5/4
