# Blender v2.76 (sub 0) OBJ File: 'tng_angled_corridor_alt.blend'
# www.blender.org
mtllib tng_angled_corridor_alt.mtl

o corridor_corner_b_middle_Cube.028
v 0.350000 0.000000 1.000000
v 0.550000 1.000000 1.000000
v 1.000000 0.000000 0.350000
v 1.000000 1.000000 0.550000
v 0.643080 0.000000 0.706920
v 0.749220 1.000000 0.800780

vt 0.000000 0.000000
vt 0.371000 0.000000
vt 0.254000 0.999905
vt 0.840000 0.999904
vt 0.723000 0.000000
vt 1.000000 0.000000
vt 0.000000 0.999905
vt 1.000000 0.999905

vn 0.700100 -0.140000 0.700100

usemtl tex_middle
f 5/1/1 3/2/1 4/3/1
f 2/4/1 1/5/1 5/6/1
f 6/7/1 5/1/1 4/3/1
f 6/8/1 2/4/1 5/6/1
